<svg xml:space="preserve" style="enable-background:new 0 0 255.975 255.455;" viewBox="0 0 255.975 255.455" height="255.455px" width="255.975px" y="0px" x="0px" xmlns:xlink="http://www.w3.org/1999/xlink" xmlns="http://www.w3.org/2000/svg" id="Layer_1" version="1.1">
<g id="Layer_1_1_">
	<g id="Layer_3_7_">
		<path d="M252.229,115.048c0-42.68-33.093-77.275-73.912-77.275
			c-0.636,0-1.262,0.031-1.894,0.049C163.536,15.18,139.905,0,112.874,0C72.053,0,38.961,34.6,38.961,77.28
			c0,0.554,0.029,1.1,0.04,1.652C16.675,92.227,1.61,117.317,1.61,146.104c0,42.678,33.094,77.27,73.914,77.27
			c2.321,0,4.615-0.123,6.884-0.342c13.558,17.17,35.068,28.115,58.028,28.115c37.732,0,67.832-29.563,72.33-67.734
			C236.229,170.465,252.229,144.715,252.229,115.048z" style="opacity:0.22;fill:#B796BA;enable-background:new    ;"></path>
	</g>
	<g style="display:none;" id="Layer_3_6_">
		<g style="display:inline;">
			<g>
				<path d="M83.635,142.438c0-11.563-10.059-20.938-22.467-20.938c-0.194,0-0.385,0.009-0.576,0.014
					c-3.917-6.134-11.102-10.245-19.318-10.245c-12.407,0-22.469,9.372-22.469,20.935c0,0.149,0.009,0.297,0.012,0.446
					c-6.783,3.603-11.363,10.398-11.363,18.197c0,11.563,10.059,20.935,22.468,20.935c0.705,0,1.403-0.033,2.092-0.095
					c4.122,4.649,10.358,7.617,17.335,7.617c11.471,0,20.925-8.011,22.293-18.351C78.772,157.451,83.635,150.478,83.635,142.438z" style="fill:#D7F7E4;"></path>
				<path d="M49.348,180.806c-6.894,0-13.391-2.749-17.949-7.567c-0.497,0.03-0.992,0.045-1.478,0.045
					c-13.216,0-23.968-10.064-23.968-22.435c0-7.767,4.328-14.996,11.356-19.075c0.247-12.173,10.902-22.003,23.964-22.003
					c8.091,0,15.716,3.9,20.112,10.232c13.116,0.11,23.749,10.133,23.749,22.437c0,8.11-4.626,15.515-12.126,19.502
					C71.161,172.75,61.137,180.806,49.348,180.806z M32.633,170.127l0.502,0.566c4.007,4.52,9.917,7.112,16.212,7.112
					c10.575,0,19.52-7.329,20.806-17.047l0.105-0.796l0.72-0.354c6.881-3.381,11.156-9.96,11.156-17.17
					c0-10.718-9.406-19.438-20.967-19.438c-0.124,0-0.245,0.004-0.367,0.008l-1.017,0.029l-0.457-0.716
					c-3.763-5.892-10.68-9.552-18.054-9.552c-11.562,0-20.969,8.719-20.969,19.435l0.029,1.339l-0.814,0.433
					c-6.518,3.461-10.567,9.927-10.567,16.872c0,10.716,9.406,19.435,20.968,19.435c0.64,0,1.299-0.03,1.958-0.089L32.633,170.127z" style="fill:#CCCCDE;"></path>
			</g>
			<path d="M60.789,120.75c-0.193,0-0.386,0.009-0.575,0.014
				c-3.141-4.918-8.383-8.534-14.573-9.775c4.898,1.229,9.023,4.208,11.56,8.175c0.164-0.004,2.416,3.886,2.583,3.886
				c10.646,0,15.601,5.738,15.601,15.659c0,6.896-2.583,11.291-8.704,14.302c-1.173,8.875-9.287,15.747-19.129,15.747
				c-5.99,0-11.34-2.543-14.877-6.53c-0.591,0.049-1.189,0.076-1.794,0.076c-10.649,0-19.013-5.048-19.013-14.968
				c0-6.683,2.988-9.974,8.432-13.938c-0.146-0.854-0.75-8.418,1.267-10.437c4.792-4.793,6.963-8.909,11.25-11.038
				c-8.414,3.025-14.385,10.627-14.385,19.535c0,0.148,0.009,0.299,0.012,0.447c-6.787,3.604-11.364,10.395-11.364,18.195
				c0,11.562,10.059,20.938,22.468,20.938c0.707,0,1.402-0.035,2.093-0.098c4.121,4.646,10.356,7.617,17.336,7.617
				c11.469,0,20.924-8.014,22.291-18.354c7.133-3.507,11.997-10.479,11.997-18.521C83.258,130.123,73.199,120.75,60.789,120.75z" style="opacity:0.1;fill:#6E6E96;enable-background:new    ;"></path>
			<g>
				<path d="M28.811,153.763c0,0,11.635,2.276,11.635,13.661c0,0,3.134,19.343-8.976,33.027h27.96
					c-0.277-0.388-24.422-32.646,2.449-51.815C45.491,158.004,28.811,153.763,28.811,153.763z" style="fill:#EDE3DA;"></path>
				<path d="M59.43,201.951H28.14l2.207-2.494c11.479-12.972,8.648-31.607,8.618-31.795l-0.019-0.238
					c0-9.08-8.4-11.682-10.144-12.123c-0.237-0.053-0.36-0.084-0.36-0.084l0.658-2.926c0,0,0.139,0.026,0.389,0.089
					c0.935,0.203,4.231,0.841,8.801,0.841c5.724,0,14.334-1.021,22.845-5.887l1.616,2.522c-6.629,4.729-10.566,10.705-11.701,17.763
					c-2.417,15.021,8.335,30.231,9.569,31.916l1.748,2.387L59.43,201.951z M34.605,198.951h21.996
					c-3.446-5.396-10.642-18.578-8.514-31.809c0.804-4.998,2.848-9.496,6.1-13.448c-6.07,2.011-11.711,2.526-15.897,2.526
					c-0.463,0-0.914-0.006-1.351-0.018c2.654,2.276,4.973,5.785,5.007,11.103C42.206,169.042,44.377,185.639,34.605,198.951z" style="fill:#CCCCDE;"></path>
			</g>
			<g>
				<path d="M36.178,130.922" style="fill:#D57E58;"></path>
			</g>
			<path d="M54.905,153.729c0,0-17.652,22.793-4.085,46.722h8.611
				C59.43,200.451,41.515,175.414,54.905,153.729z" style="opacity:0.11;fill:#6E6E96;enable-background:new    ;"></path>
		</g>
		<g style="display:inline;">
			<g>
				<path d="M253.475,141.155c0-10.827-9.42-19.604-21.04-19.604c-0.183,0-0.358,0.008-0.539,0.013
					c-3.669-5.744-10.396-9.595-18.091-9.595c-11.62,0-21.041,8.777-21.041,19.604c0,0.142,0.009,0.279,0.012,0.419
					c-6.354,3.375-10.644,9.739-10.644,17.043c0,10.825,9.421,19.604,21.04,19.604c0.66,0,1.312-0.033,1.96-0.091
					c3.858,4.354,9.698,7.136,16.233,7.136c10.736,0,19.596-7.5,20.875-17.187C248.92,155.213,253.475,148.685,253.475,141.155z" style="fill:#D7F7E4;"></path>
				<path d="M221.365,177.185c-6.467,0-12.562-2.573-16.847-7.086c-0.46,0.027-0.904,0.041-1.347,0.041
					c-12.429,0-22.54-9.468-22.54-21.104c0-7.289,4.053-14.077,10.637-17.92c0.262-11.426,10.271-20.646,22.536-20.646
					c7.589,0,14.744,3.652,18.885,9.583c12.312,0.128,22.285,9.545,22.285,21.102c0,7.614-4.335,14.568-11.367,18.327
					C241.852,169.629,232.437,177.185,221.365,177.185z M205.753,166.987l0.502,0.566c3.733,4.214,9.241,6.631,15.11,6.631
					c9.857,0,18.192-6.828,19.388-15.883l0.105-0.796l0.72-0.354c6.413-3.154,10.396-9.284,10.396-15.997
					c0-9.982-8.766-18.104-19.54-18.104c-0.112,0-0.221,0.004-0.33,0.007l-1.017,0.028l-0.456-0.715
					c-3.508-5.492-9.956-8.903-16.827-8.903c-10.775,0-19.541,8.121-19.541,18.104l0.03,1.311l-0.814,0.433
					c-6.074,3.227-9.848,9.25-9.848,15.719c0,9.982,8.766,18.104,19.54,18.104c0.587,0,1.185-0.027,1.827-0.085L205.753,166.987z" style="fill:#CCCCDE;"></path>
			</g>
			<path d="M232.081,120.846c-0.186,0-0.358,0.008-0.539,0.012
				c-2.94-4.606-7.854-7.992-13.646-9.154c4.586,1.15,8.449,3.94,10.822,7.655c0.154-0.004,2.263,3.639,2.419,3.639
				c9.971,0,14.608,5.374,14.608,14.664c0,6.459-2.42,10.573-8.148,13.396c-1.1,8.312-8.698,14.742-17.914,14.742
				c-5.605,0-10.619-2.381-13.934-6.117c-0.559,0.047-1.112,0.072-1.684,0.072c-9.975,0-17.806-4.727-17.806-14.016
				c0-6.258,2.8-9.34,7.896-13.055c-0.14-0.809-0.701-7.888,1.188-9.772c4.485-4.488,6.521-8.343,10.534-10.337
				c-7.879,2.833-13.471,9.952-13.471,18.291c0,0.139,0.006,0.275,0.012,0.418c-6.354,3.373-10.646,9.736-10.646,17.041
				c0,10.824,9.421,19.604,21.041,19.604c0.661,0,1.313-0.032,1.959-0.091c3.859,4.354,9.699,7.137,16.234,7.137
				c10.739,0,19.594-7.5,20.875-17.188c6.68-3.285,11.229-9.813,11.229-17.343C253.122,129.623,243.702,120.846,232.081,120.846z" style="opacity:0.1;fill:#6E6E96;enable-background:new    ;"></path>
			<g>
				<path d="M202.135,151.758c0,0,10.896,2.134,10.896,12.798c0,0,2.935,18.108-8.405,30.928h26.184
					c-0.26-0.358-22.87-30.565,2.294-48.521C217.754,155.731,202.135,151.758,202.135,151.758z" style="fill:#EDE3DA;"></path>
				<path d="M230.81,196.983h-29.513l2.206-2.494c10.744-12.146,8.076-29.52,8.048-29.693l-0.02-0.24
					c0-8.433-7.803-10.854-9.428-11.266c-0.223-0.049-0.339-0.078-0.339-0.078l0.658-2.926c0,0,0.131,0.024,0.368,0.084
					c0.875,0.19,3.955,0.786,8.228,0.786c5.347,0,13.39-0.954,21.341-5.496l1.615,2.523c-6.195,4.421-9.87,10.006-10.924,16.602
					c-2.247,14.071,7.8,28.223,8.952,29.79l1.758,2.389L230.81,196.983z M207.749,193.983h20.232
					c-3.271-5.141-9.861-17.347-7.893-29.672c0.735-4.605,2.59-8.762,5.536-12.424c-5.578,1.803-10.75,2.269-14.606,2.269
					c-0.345,0-0.682-0.004-1.011-0.011c2.418,2.149,4.49,5.412,4.523,10.292C214.78,166.101,216.782,181.527,207.749,193.983z" style="fill:#CCCCDE;"></path>
			</g>
			<g>
				<path d="M209.036,130.373" style="fill:#D57E58;"></path>
			</g>
			<path d="M226.571,151.729c0,0-16.529,21.344-3.822,43.752h8.062
				C230.808,195.481,214.032,172.035,226.571,151.729z" style="opacity:0.11;fill:#6E6E96;enable-background:new    ;"></path>
		</g>
		<g style="display:inline;">
			<g>
				<path d="M216.773,142.916c0-16.621-14.461-30.094-32.299-30.094c-0.278,0-0.554,0.012-0.828,0.019
					c-5.632-8.817-15.959-14.729-27.771-14.729c-17.838,0-32.301,13.475-32.301,30.096c0,0.215,0.014,0.428,0.018,0.646
					c-9.755,5.181-16.339,14.943-16.339,26.155c0,16.62,14.462,30.099,32.3,30.099c1.014,0,2.018-0.049,3.008-0.14
					c5.926,6.688,14.891,10.95,24.921,10.95c16.489,0,30.081-11.515,32.049-26.379C209.782,164.498,216.773,154.47,216.773,142.916z" style="fill:#D7F7E4;"></path>
				<path d="M167.482,197.419c-9.839,0-19.102-3.962-25.536-10.896c-0.805,0.057-1.606,0.085-2.393,0.085
					c-18.637,0-33.8-14.175-33.8-31.599c0-11.044,6.23-21.321,16.322-27.034c0.134-17.315,15.245-31.363,33.8-31.363
					c11.536,0,22.398,5.615,28.566,14.71c0.011,0,0.021,0,0.032,0c18.637,0,33.799,14.173,33.799,31.594
					c0,11.517-6.635,22.026-17.37,27.611C198.444,185.913,184.225,197.419,167.482,197.419z M143.18,183.405l0.504,0.568
					c5.881,6.639,14.555,10.445,23.798,10.445c15.53,0,28.669-10.78,30.562-25.076l0.105-0.795l0.72-0.354
					c10.118-4.977,16.404-14.663,16.404-25.278c0-15.767-13.816-28.594-30.799-28.594c-0.183,0-0.363,0.006-0.544,0.011
					l-1.093,0.028l-0.455-0.713c-5.53-8.658-15.688-14.036-26.507-14.036c-16.983,0-30.801,12.828-30.801,28.596
					c0,0.105,0.004,0.211,0.008,0.317l0.025,1.223l-0.812,0.432c-9.587,5.091-15.542,14.605-15.542,24.83
					c0,15.77,13.817,28.599,30.8,28.599c0.939,0,1.906-0.045,2.871-0.134L143.18,183.405z" style="fill:#CCCCDE;"></path>
			</g>
			<path d="M183.931,111.738c-0.276,0-0.552,0.012-0.827,0.019
				c-4.516-7.071-12.051-12.269-20.949-14.052c7.041,1.766,12.973,6.049,16.614,11.751c0.237-0.006,3.476,5.586,3.713,5.586
				c15.31,0,22.431,8.248,22.431,22.512c0,9.913-3.717,16.231-12.515,20.563c-1.687,12.754-13.353,22.635-27.5,22.635
				c-8.608,0-16.302-3.656-21.387-9.396c-0.851,0.07-1.71,0.113-2.58,0.113c-15.31,0-27.332-7.255-27.332-21.517
				c0-9.604,4.298-14.336,12.12-20.039c-0.209-1.233-1.077-12.104,1.82-15.002c6.89-6.89,10.011-12.808,16.174-15.868
				c-12.096,4.349-20.679,15.277-20.679,28.08c0,0.215,0.011,0.428,0.017,0.646c-9.756,5.176-16.34,14.947-16.34,26.157
				c0,16.62,14.461,30.098,32.3,30.098c1.017,0,2.017-0.049,3.008-0.137c5.925,6.688,14.892,10.948,24.922,10.948
				c16.487,0,30.078-11.515,32.046-26.379c10.256-5.043,17.244-15.069,17.244-26.623
				C216.231,125.211,201.77,111.738,183.931,111.738z" style="opacity:0.1;fill:#6E6E96;enable-background:new    ;"></path>
			<g>
				<path d="M137.959,159.192c0,0,16.727,3.271,16.727,19.644c0,0,4.504,27.808-12.902,47.479h40.193
					c-0.396-0.558-35.105-46.922,3.521-74.483C161.939,165.293,137.959,159.192,137.959,159.192z" style="fill:#EDE3DA;"></path>
				<path d="M181.977,227.815h-43.523l2.207-2.494c16.714-18.89,12.588-45.975,12.545-46.246l-0.02-0.239
					c0-13.558-12.514-17.422-15.085-18.071c-0.336-0.073-0.512-0.118-0.512-0.118l0.658-2.926c0,0,0.193,0.037,0.54,0.123
					c1.35,0.295,6.158,1.228,12.812,1.228c8.306,0,20.799-1.481,33.155-8.542l1.615,2.523c-9.673,6.902-15.421,15.634-17.085,25.952
					c-3.52,21.826,12.078,43.929,13.868,46.377l1.744,2.386L181.977,227.815z M144.973,224.815h34.147
					c-4.571-6.935-15.97-26.618-12.798-46.288c1.268-7.857,4.705-14.846,10.253-20.873c-9.523,3.546-18.479,4.417-24.977,4.417
					c-1.404,0-2.727-0.039-3.957-0.104c4.313,3.1,8.505,8.287,8.544,16.75C156.523,180.925,159.875,205.589,144.973,224.815z" style="fill:#CCCCDE;"></path>
			</g>
			<g>
				<path d="M148.552,126.362" style="fill:#D57E58;"></path>
			</g>
			<path d="M175.472,159.147c0,0-25.378,32.767-5.873,67.164h12.378
				C181.977,226.313,156.223,190.319,175.472,159.147z" style="opacity:0.11;fill:#6E6E96;enable-background:new    ;"></path>
		</g>
		<g style="display:inline;">
			<g>
				<path d="M144.936,144.026c0-13.646-11.873-24.708-26.517-24.708c-0.229,0-0.454,0.01-0.682,0.016
					c-4.622-7.239-13.102-12.092-22.8-12.092c-14.644,0-26.518,11.063-26.518,24.706c0,0.178,0.012,0.354,0.015,0.528
					c-8.01,4.252-13.414,12.271-13.414,21.478c0,13.646,11.872,24.707,26.52,24.707c0.832,0,1.653-0.041,2.469-0.104
					c4.864,5.483,12.224,8.983,20.46,8.983c13.537,0,24.695-9.451,26.309-21.651C139.196,161.746,144.936,153.515,144.936,144.026z" style="fill:#D7F7E4;"></path>
				<path d="M104.469,189.041c-8.108,0-15.747-3.248-21.08-8.938c-0.655,0.039-1.265,0.059-1.849,0.059
					c-15.45,0-28.02-11.757-28.02-26.207c0-9.119,5.111-17.604,13.402-22.356c0.202-14.289,12.691-25.855,28.015-25.855
					c9.511,0,18.47,4.607,23.595,12.076c15.396,0.058,27.903,11.792,27.903,26.208c0,9.512-5.454,18.197-14.288,22.849
					C130.05,179.567,118.3,189.041,104.469,189.041z M84.636,177.004l0.495,0.559c4.78,5.388,11.829,8.479,19.338,8.479
					c12.617,0,23.288-8.748,24.821-20.348l0.105-0.795l0.72-0.354c8.216-4.045,13.32-11.906,13.32-20.518
					c0-12.797-11.223-23.208-25.017-23.208c-0.145,0-0.287,0.005-0.429,0.009l-1.061,0.028l-0.456-0.714
					c-4.489-7.031-12.741-11.399-21.536-11.399c-13.795,0-25.018,10.41-25.018,23.206l0.03,1.422l-0.812,0.432
					c-7.783,4.131-12.617,11.854-12.617,20.152c0,12.797,11.224,23.207,25.02,23.207c0.719,0,1.488-0.032,2.353-0.1L84.636,177.004z" style="fill:#CCCCDE;"></path>
			</g>
			<path d="M117.973,118.432c-0.228,0-0.452,0.009-0.679,0.015
				c-3.707-5.805-9.896-10.072-17.199-11.537c5.78,1.45,10.648,4.966,13.641,9.647c0.194-0.005,2.853,4.586,3.05,4.586
				c12.565,0,18.414,6.771,18.414,18.48c0,8.14-3.052,13.325-10.271,16.881c-1.384,10.474-10.961,18.584-22.576,18.584
				c-7.067,0-13.384-3.004-17.559-7.715c-0.698,0.062-1.404,0.097-2.118,0.097c-12.568,0-22.438-5.957-22.438-17.664
				c0-7.886,3.528-11.771,9.949-16.451c-0.171-1.017-0.884-9.938,1.496-12.315c5.655-5.657,8.218-10.515,13.277-13.028
				c-9.932,3.571-16.979,12.542-16.979,23.053c0,0.177,0.012,0.354,0.017,0.527c-8.013,4.25-13.415,12.271-13.415,21.477
				c0,13.646,11.873,24.707,26.518,24.707c0.834,0,1.655-0.041,2.469-0.107c4.864,5.487,12.226,8.987,20.461,8.987
				c13.536,0,24.693-9.45,26.312-21.655c8.418-4.143,14.158-12.371,14.158-21.854C144.491,129.494,132.618,118.432,117.973,118.432z" style="opacity:0.1;fill:#6E6E96;enable-background:new    ;"></path>
			<g>
				<path d="M80.232,157.392c0,0,13.731,2.688,13.731,16.129c0,0,3.697,22.822-10.595,38.978h33
					c-0.328-0.455-28.824-38.521,2.89-61.152C99.918,162.397,80.232,157.392,80.232,157.392z" style="fill:#EDE3DA;"></path>
				<path d="M116.368,213.998h-36.33l2.206-2.494c13.663-15.444,10.273-37.522,10.238-37.743l-0.02-0.24
					c0-10.929-10.097-14.051-12.182-14.577c-0.276-0.062-0.419-0.098-0.419-0.098l0.658-2.926c0,0,0.16,0.03,0.449,0.103
					c1.105,0.241,5.024,1,10.455,1c6.787,0,16.997-1.211,27.091-6.979l1.615,2.523c-7.892,5.632-12.576,12.754-13.923,21.168
					c-2.861,17.866,9.887,35.854,11.351,37.847l1.753,2.388L116.368,213.998z M86.53,210.998h26.991
					c-3.932-6.047-12.823-21.844-10.278-37.738c0.989-6.177,3.596-11.705,7.778-16.519c-7.479,2.623-14.468,3.281-19.599,3.281
					c-0.832,0-1.628-0.017-2.388-0.046c3.334,2.628,6.391,6.832,6.427,13.426C95.756,175.339,98.41,195.245,86.53,210.998z" style="fill:#CCCCDE;"></path>
			</g>
			<g>
				<path d="M88.928,130.438" style="fill:#D57E58;"></path>
			</g>
			<path d="M111.028,157.354c0,0-20.835,26.897-4.819,55.142h10.162
				C116.369,212.496,95.225,182.944,111.028,157.354z" style="opacity:0.11;fill:#6E6E96;enable-background:new    ;"></path>
		</g>
		<g style="display:inline;">
			<g>
				<path d="M252.159,168.164c0-12.345-10.74-22.351-23.988-22.351c-0.202,0-0.406,0.008-0.61,0.015
					c-4.187-6.55-11.854-10.938-20.625-10.938c-13.248,0-23.983,10.008-23.983,22.351c0,0.161,0.012,0.317,0.014,0.479
					c-7.244,3.851-12.135,11.104-12.135,19.432c0,12.349,10.734,22.354,23.983,22.354c0.753,0,1.497-0.039,2.229-0.104
					c4.398,4.97,11.062,8.136,18.512,8.136c12.245,0,22.339-8.554,23.799-19.592C246.965,184.19,252.159,176.746,252.159,168.164z" style="fill:#D7F7E4;"></path>
				<path d="M215.556,209.037c-7.356,0-14.282-2.938-19.126-8.084c-0.556,0.035-1.089,0.053-1.615,0.053
					c-14.052,0-25.483-10.701-25.483-23.854c0-8.271,4.622-15.973,12.125-20.31c0.228-12.968,11.57-23.452,25.479-23.452
					c8.62,0,16.745,4.165,21.419,10.925c13.97,0.093,25.305,10.756,25.305,23.85c0,8.629-4.937,16.518-12.936,20.766
					C238.783,200.448,228.112,209.037,215.556,209.037z M197.665,197.84l0.502,0.567c4.292,4.849,10.63,7.63,17.389,7.63
					c11.341,0,20.933-7.862,22.312-18.288l0.105-0.795l0.718-0.354c7.383-3.643,11.969-10.707,11.969-18.437
					c0-11.497-10.088-20.851-22.488-20.851c-0.163,0-0.326,0.006-0.491,0.012l-0.854,0.029l-0.528-0.719
					c-4.04-6.32-11.459-10.246-19.361-10.246c-12.397,0-22.483,9.354-22.483,20.851l0.024,1.375l-0.807,0.429
					c-6.994,3.718-11.339,10.656-11.339,18.107c0,11.499,10.086,20.854,22.483,20.854c0.668,0,1.354-0.032,2.096-0.099
					L197.665,197.84z" style="fill:#CCCCDE;"></path>
			</g>
			<path d="M227.767,145.008c-0.206,0-0.409,0.013-0.614,0.017
				c-3.354-5.25-8.947-9.11-15.558-10.438c5.229,1.312,9.633,4.492,12.339,8.729c0.175-0.004,2.579,4.147,2.757,4.147
				c11.368,0,16.655,6.123,16.655,16.72c0,7.36-2.757,12.056-9.291,15.271c-1.252,9.473-9.915,16.813-20.423,16.813
				c-6.396,0-12.106-2.722-15.884-6.979c-0.631,0.055-1.271,0.086-1.916,0.086c-11.368,0-20.299-5.39-20.299-15.979
				c0-7.136,3.188-10.646,9.002-14.886c-0.156-0.918-0.806-8.985,1.353-11.141c5.116-5.117,7.437-9.515,12.011-11.785
				c-8.979,3.229-15.355,11.347-15.355,20.854c0,0.157,0.013,0.314,0.017,0.479c-7.246,3.846-12.138,11.104-12.138,19.428
				c0,12.344,10.738,22.352,23.988,22.352c0.754,0,1.494-0.033,2.229-0.102c4.401,4.967,11.062,8.133,18.509,8.133
				c12.245,0,22.338-8.553,23.801-19.592c7.613-3.742,12.812-11.191,12.812-19.77C251.754,155.017,241.016,145.008,227.767,145.008z" style="opacity:0.1;fill:#6E6E96;enable-background:new    ;"></path>
			<g>
				<path d="M193.625,180.252c0,0,12.422,2.433,12.422,14.588c0,0,3.345,20.646-9.584,35.261h29.853
					c-0.296-0.41-26.071-34.849,2.615-55.317C211.435,184.783,193.625,180.252,193.625,180.252z" style="fill:#EDE3DA;"></path>
				<path d="M226.316,231.601h-33.182l2.206-2.494c12.315-13.922,9.259-33.827,9.227-34.026l-0.02-0.24
					c0-9.771-9.035-12.57-10.908-13.045c-0.252-0.056-0.384-0.089-0.384-0.089l0.658-2.926c0,0,0.147,0.028,0.412,0.094
					c1,0.218,4.532,0.902,9.428,0.902c6.122,0,15.33-1.093,24.434-6.296l1.615,2.523c-7.105,5.07-11.324,11.48-12.536,19.053
					c-2.58,16.108,8.92,32.333,10.24,34.131l1.754,2.388L226.316,231.601z M199.609,228.601h23.868
					c-3.633-5.64-11.453-19.779-9.174-34.019c0.872-5.444,3.125-10.332,6.725-14.61c-6.594,2.236-12.736,2.805-17.274,2.805
					c-0.6,0-1.18-0.01-1.739-0.027c2.908,2.411,5.498,6.182,5.533,11.973C207.82,196.534,210.169,214.37,199.609,228.601z" style="fill:#CCCCDE;"></path>
			</g>
			<g>
				<path d="M201.493,155.871" style="fill:#D57E58;"></path>
			</g>
			<path d="M221.485,180.22c0,0-18.847,24.334-4.359,49.881h9.19
				C226.316,230.101,207.189,203.369,221.485,180.22z" style="opacity:0.11;fill:#6E6E96;enable-background:new    ;"></path>
		</g>
		<g style="display:inline;">
			<g>
				<path d="M87.893,166.313c0-13.111-11.408-23.738-25.479-23.738c-0.222,0-0.438,0.008-0.653,0.014
					c-4.443-6.955-12.589-11.613-21.907-11.613c-14.069,0-25.479,10.629-25.479,23.736c0,0.17,0.011,0.336,0.015,0.506
					C6.694,159.304,1.5,167.013,1.5,175.856c0,13.106,11.407,23.735,25.479,23.735c0.8,0,1.59-0.041,2.372-0.104
					c4.674,5.271,11.745,8.639,19.659,8.639c13.007,0,23.729-9.082,25.279-20.81C82.378,183.336,87.893,175.429,87.893,166.313z" style="fill:#D7F7E4;"></path>
				<path d="M49.01,209.627c-7.795,0-15.142-3.122-20.278-8.592c-0.622,0.038-1.201,0.057-1.753,0.057
					C12.103,201.092,0,189.771,0,175.856c0-8.773,4.91-16.938,12.878-21.517c0.213-13.745,12.232-24.864,26.976-24.864
					c9.147,0,17.765,4.424,22.703,11.6c14.811,0.072,26.836,11.366,26.836,25.238c0,9.15-5.242,17.507-13.734,21.989
					C73.627,200.515,62.318,209.627,49.01,209.627z M29.977,197.934l0.496,0.56c4.584,5.169,11.341,8.134,18.537,8.134
					c12.094,0,22.323-8.386,23.792-19.506l0.105-0.795l0.719-0.354c7.875-3.876,12.766-11.408,12.766-19.658
					c0-12.263-10.757-22.238-23.979-22.238c-0.164,0-0.323,0.005-0.483,0.01l-0.978,0.026l-0.457-0.715
					c-4.303-6.736-12.213-10.921-20.643-10.921c-13.222,0-23.979,9.976-23.979,22.236l0.036,1.396l-0.818,0.435
					C7.634,160.503,3,167.903,3,175.856c0,12.261,10.757,22.235,23.979,22.235c0.684,0,1.421-0.032,2.252-0.099L29.977,197.934z" style="fill:#CCCCDE;"></path>
			</g>
			<path d="M61.986,141.72c-0.219,0-0.435,0.01-0.65,0.016
				c-3.563-5.577-9.506-9.678-16.525-11.086c5.553,1.394,10.231,4.771,13.106,9.271c0.186-0.004,2.737,4.406,2.928,4.406
				c12.076,0,17.692,6.506,17.692,17.758c0,7.82-2.931,12.806-9.87,16.222c-1.33,10.063-10.531,17.854-21.693,17.854
				c-6.792,0-12.859-2.886-16.871-7.412c-0.67,0.058-1.348,0.092-2.035,0.092c-12.074,0-21.561-5.723-21.561-16.975
				c0-7.574,3.391-11.308,9.561-15.808c-0.165-0.976-0.85-9.55,1.438-11.836c5.435-5.435,7.896-10.103,12.758-12.517
				c-9.541,3.431-16.312,12.051-16.312,22.146c0,0.17,0.011,0.338,0.015,0.508c-7.696,4.084-12.89,11.793-12.89,20.641
				c0,13.105,11.406,23.734,25.479,23.734c0.801,0,1.591-0.039,2.373-0.104c4.674,5.271,11.745,8.641,19.659,8.641
				c13.006,0,23.728-9.08,25.276-20.811c8.091-3.979,13.604-11.893,13.604-21.002C87.466,152.347,76.058,141.72,61.986,141.72z" style="opacity:0.1;fill:#6E6E96;enable-background:new    ;"></path>
			<g>
				<path d="M25.723,179.151c0,0,13.193,2.584,13.193,15.496c0,0,3.553,21.933-10.181,37.451h31.707
					c-0.312-0.438-27.692-37.017,2.777-58.761C44.638,183.963,25.723,179.151,25.723,179.151z" style="fill:#EDE3DA;"></path>
				<path d="M60.443,233.599H25.405l2.207-2.494c13.111-14.814,9.858-36.005,9.824-36.217l-0.02-0.24
					c0-10.453-9.66-13.442-11.658-13.948c-0.267-0.059-0.405-0.094-0.405-0.094l0.658-2.926c0,0,0.155,0.029,0.434,0.099
					c1.062,0.231,4.82,0.96,10.029,0.96c6.514,0,16.313-1.163,26.001-6.702l1.616,2.522c-7.56,5.396-12.051,12.216-13.349,20.271
					c-2.754,17.102,9.48,34.428,10.884,36.347l1.746,2.386L60.443,233.599z M31.891,230.599h25.712
					c-3.807-5.892-12.27-21.057-9.823-36.245c0.944-5.862,3.402-11.116,7.335-15.701c-7.115,2.464-13.755,3.086-18.642,3.086
					c-0.734,0-1.44-0.014-2.115-0.037c3.159,2.539,6.021,6.566,6.057,12.828C40.701,196.416,43.23,215.475,31.891,230.599z" style="fill:#CCCCDE;"></path>
			</g>
			<g>
				<path d="M34.078,153.254" style="fill:#D57E58;"></path>
			</g>
			<path d="M55.313,179.117c0,0-20.02,25.848-4.633,52.981h9.764
				C60.444,232.101,40.129,203.707,55.313,179.117z" style="opacity:0.11;fill:#6E6E96;enable-background:new    ;"></path>
		</g>
	</g>
	<g style="display:none;" id="Layer_3_5_">
		<g style="display:inline;">
			<g>
				<path d="M84.635,142.438c0-11.563-10.059-20.938-22.467-20.938c-0.194,0-0.385,0.009-0.576,0.014
					c-3.917-6.134-11.102-10.245-19.318-10.245c-12.407,0-22.469,9.372-22.469,20.935c0,0.149,0.009,0.297,0.012,0.446
					c-6.783,3.603-11.363,10.398-11.363,18.197c0,11.563,10.059,20.935,22.468,20.935c0.705,0,1.403-0.033,2.092-0.095
					c4.122,4.649,10.358,7.617,17.335,7.617c11.471,0,20.925-8.011,22.293-18.351C79.772,157.451,84.635,150.478,84.635,142.438z" style="fill:#D7F7E4;"></path>
				<path d="M50.348,180.806c-6.894,0-13.391-2.749-17.949-7.567c-0.497,0.03-0.992,0.045-1.478,0.045
					c-13.216,0-23.968-10.064-23.968-22.435c0-7.767,4.328-14.996,11.356-19.075c0.247-12.173,10.902-22.003,23.964-22.003
					c8.091,0,15.716,3.9,20.112,10.232c13.116,0.11,23.749,10.133,23.749,22.437c0,8.11-4.626,15.515-12.126,19.502
					C72.161,172.75,62.137,180.806,50.348,180.806z M33.633,170.127l0.502,0.566c4.007,4.52,9.917,7.112,16.212,7.112
					c10.575,0,19.52-7.329,20.806-17.047l0.105-0.796l0.72-0.354c6.881-3.381,11.156-9.96,11.156-17.17
					c0-10.718-9.406-19.438-20.967-19.438c-0.124,0-0.245,0.004-0.367,0.008l-1.017,0.029l-0.457-0.716
					c-3.763-5.892-10.68-9.552-18.054-9.552c-11.562,0-20.969,8.719-20.969,19.435l0.029,1.339l-0.814,0.433
					c-6.518,3.461-10.567,9.927-10.567,16.872c0,10.716,9.406,19.435,20.968,19.435c0.64,0,1.299-0.03,1.958-0.089L33.633,170.127z" style="fill:#CCCCDE;"></path>
			</g>
			<path d="M61.789,120.75c-0.193,0-0.386,0.009-0.575,0.014
				c-3.141-4.918-8.383-8.534-14.573-9.775c4.898,1.229,9.023,4.208,11.56,8.175c0.164-0.004,2.416,3.886,2.583,3.886
				c10.646,0,15.601,5.738,15.601,15.659c0,6.896-2.583,11.291-8.704,14.302c-1.173,8.875-9.287,15.747-19.129,15.747
				c-5.99,0-11.34-2.543-14.877-6.532c-0.591,0.051-1.189,0.078-1.794,0.078c-10.649,0-19.013-5.048-19.013-14.968
				c0-6.683,2.988-9.974,8.432-13.938c-0.146-0.855-0.75-8.419,1.267-10.438c4.792-4.793,6.963-8.909,11.25-11.038
				c-8.414,3.025-14.385,10.627-14.385,19.534c0,0.148,0.009,0.299,0.012,0.447c-6.787,3.604-11.364,10.396-11.364,18.197
				c0,11.562,10.059,20.936,22.468,20.936c0.707,0,1.402-0.035,2.093-0.096c4.121,4.646,10.356,7.617,17.336,7.617
				c11.469,0,20.924-8.014,22.291-18.354c7.133-3.507,11.997-10.479,11.997-18.521C84.258,130.123,74.199,120.75,61.789,120.75z" style="opacity:0.1;fill:#6E6E96;enable-background:new    ;"></path>
			<g>
				<path d="M29.811,153.763c0,0,11.635,2.276,11.635,13.661c0,0,3.134,19.343-8.976,33.027h27.96
					c-0.277-0.388-24.422-32.644,2.449-51.815C46.491,158.004,29.811,153.763,29.811,153.763z" style="fill:#EDE3DA;"></path>
				<path d="M60.43,201.951H29.14l2.207-2.494c11.479-12.972,8.648-31.607,8.618-31.795l-0.019-0.238
					c0-9.08-8.4-11.682-10.144-12.123c-0.237-0.053-0.36-0.084-0.36-0.084l0.658-2.926c0,0,0.139,0.026,0.389,0.089
					c0.935,0.203,4.231,0.841,8.801,0.841c5.724,0,14.334-1.021,22.845-5.887l1.616,2.522c-6.629,4.73-10.566,10.707-11.702,17.766
					c-2.416,15.02,8.336,30.229,9.57,31.913l1.748,2.387L60.43,201.951z M35.605,198.951h21.996
					c-3.446-5.395-10.642-18.576-8.514-31.806c0.804-4.999,2.848-9.499,6.101-13.452c-6.07,2.012-11.712,2.527-15.898,2.527
					c-0.463,0-0.914-0.006-1.351-0.018c2.654,2.276,4.973,5.785,5.007,11.103C43.206,169.042,45.377,185.639,35.605,198.951z" style="fill:#CCCCDE;"></path>
			</g>
			<g>
				<path d="M37.178,130.922" style="fill:#D57E58;"></path>
			</g>
			<path d="M55.905,153.729c0,0-17.652,22.793-4.085,46.722h8.611
				C60.43,200.451,42.515,175.414,55.905,153.729z" style="opacity:0.11;fill:#6E6E96;enable-background:new    ;"></path>
		</g>
		<g style="display:inline;">
			<g>
				<path d="M254.475,141.155c0-10.827-9.42-19.604-21.04-19.604c-0.183,0-0.358,0.008-0.539,0.013
					c-3.669-5.744-10.396-9.595-18.091-9.595c-11.62,0-21.041,8.777-21.041,19.604c0,0.142,0.009,0.279,0.012,0.419
					c-6.354,3.375-10.644,9.739-10.644,17.043c0,10.825,9.421,19.604,21.04,19.604c0.66,0,1.312-0.033,1.96-0.091
					c3.858,4.355,9.698,7.136,16.233,7.136c10.737,0,19.596-7.5,20.875-17.187C249.92,155.213,254.475,148.685,254.475,141.155z" style="fill:#D7F7E4;"></path>
				<path d="M222.365,177.185c-6.468,0-12.563-2.573-16.847-7.086c-0.46,0.027-0.904,0.041-1.347,0.041
					c-12.429,0-22.54-9.468-22.54-21.104c0-7.289,4.053-14.077,10.637-17.92c0.262-11.426,10.271-20.646,22.536-20.646
					c7.589,0,14.744,3.652,18.885,9.583c12.312,0.128,22.285,9.545,22.285,21.102c0,7.614-4.335,14.568-11.367,18.327
					C242.852,169.629,233.437,177.185,222.365,177.185z M206.753,166.987l0.502,0.566c3.732,4.214,9.24,6.631,15.11,6.631
					c9.857,0,18.192-6.828,19.388-15.883l0.105-0.796l0.72-0.354c6.413-3.154,10.396-9.284,10.396-15.997
					c0-9.982-8.766-18.104-19.54-18.104c-0.112,0-0.221,0.004-0.33,0.007l-1.017,0.028l-0.456-0.715
					c-3.508-5.492-9.956-8.903-16.827-8.903c-10.775,0-19.541,8.121-19.541,18.104l0.03,1.311l-0.814,0.433
					c-6.074,3.227-9.848,9.25-9.848,15.719c0,9.982,8.766,18.104,19.54,18.104c0.587,0,1.185-0.027,1.827-0.085L206.753,166.987z" style="fill:#CCCCDE;"></path>
			</g>
			<path d="M233.081,120.846c-0.185,0-0.358,0.008-0.539,0.012
				c-2.94-4.606-7.854-7.992-13.646-9.154c4.586,1.15,8.449,3.94,10.822,7.655c0.154-0.004,2.263,3.639,2.419,3.639
				c9.971,0,14.608,5.374,14.608,14.664c0,6.459-2.42,10.573-8.148,13.396c-1.1,8.312-8.698,14.742-17.914,14.742
				c-5.605,0-10.619-2.381-13.934-6.117c-0.558,0.047-1.112,0.072-1.683,0.072c-9.975,0-17.806-4.727-17.806-14.016
				c0-6.256,2.8-9.338,7.896-13.055c-0.14-0.807-0.701-7.887,1.188-9.771c4.486-4.488,6.521-8.343,10.535-10.337
				c-7.879,2.833-13.471,9.952-13.471,18.292c0,0.139,0.006,0.275,0.012,0.418c-6.355,3.373-10.646,9.736-10.646,17.041
				c0,10.824,9.42,19.604,21.041,19.604c0.661,0,1.313-0.031,1.959-0.088c3.859,4.355,9.699,7.133,16.234,7.133
				c10.74,0,19.594-7.5,20.875-17.186c6.68-3.285,11.232-9.814,11.232-17.342C254.122,129.623,244.702,120.846,233.081,120.846z" style="opacity:0.1;fill:#6E6E96;enable-background:new    ;"></path>
			<g>
				<path d="M203.135,151.758c0,0,10.896,2.134,10.896,12.798c0,0,2.935,18.108-8.405,30.928h26.184
					c-0.26-0.358-22.87-30.565,2.294-48.521C218.754,155.731,203.135,151.758,203.135,151.758z" style="fill:#EDE3DA;"></path>
				<path d="M231.81,196.983h-29.513l2.206-2.494c10.744-12.146,8.076-29.52,8.048-29.693l-0.02-0.24
					c0-8.433-7.803-10.854-9.428-11.266c-0.223-0.049-0.339-0.078-0.339-0.078l0.658-2.926c0,0,0.131,0.024,0.368,0.084
					c0.875,0.19,3.955,0.786,8.228,0.786c5.347,0,13.39-0.954,21.341-5.496l1.615,2.523c-6.195,4.421-9.87,10.006-10.924,16.602
					c-2.247,14.071,7.8,28.223,8.952,29.79l1.758,2.389L231.81,196.983z M208.749,193.983h20.232
					c-3.271-5.141-9.861-17.347-7.893-29.672c0.735-4.605,2.59-8.762,5.536-12.424c-5.578,1.803-10.75,2.269-14.606,2.269
					c-0.345,0-0.682-0.004-1.011-0.011c2.418,2.149,4.49,5.412,4.523,10.292C215.78,166.101,217.782,181.527,208.749,193.983z" style="fill:#CCCCDE;"></path>
			</g>
			<g>
				<path d="M210.036,130.373" style="fill:#D57E58;"></path>
			</g>
			<path d="M227.571,151.729c0,0-16.529,21.344-3.822,43.752h8.062
				C231.808,195.481,215.032,172.035,227.571,151.729z" style="opacity:0.11;fill:#6E6E96;enable-background:new    ;"></path>
		</g>
		<g style="display:inline;">
			<g>
				<path d="M217.773,142.916c0-16.621-14.461-30.094-32.299-30.094c-0.278,0-0.554,0.012-0.828,0.019
					c-5.632-8.817-15.959-14.729-27.771-14.729c-17.838,0-32.301,13.475-32.301,30.096c0,0.215,0.014,0.428,0.018,0.646
					c-9.755,5.18-16.339,14.944-16.339,26.155c0,16.621,14.462,30.099,32.3,30.099c1.014,0,2.018-0.051,3.008-0.14
					c5.926,6.689,14.891,10.951,24.921,10.951c16.489,0,30.081-11.514,32.049-26.379
					C210.782,164.498,217.773,154.47,217.773,142.916z" style="fill:#D7F7E4;"></path>
				<path d="M168.482,197.42c-9.84,0-19.103-3.962-25.537-10.897c-0.817,0.058-1.619,0.086-2.392,0.086
					c-18.637,0-33.8-14.175-33.8-31.599c0-11.045,6.229-21.322,16.322-27.034c0.134-17.315,15.245-31.363,33.8-31.363
					c11.536,0,22.398,5.615,28.566,14.71c0.011,0,0.021,0,0.032,0c18.637,0,33.799,14.173,33.799,31.594
					c0,11.516-6.635,22.026-17.37,27.612C199.444,185.914,185.226,197.42,168.482,197.42z M144.181,183.407l0.503,0.567
					c5.881,6.638,14.555,10.445,23.798,10.445c15.53,0,28.67-10.78,30.562-25.076l0.105-0.795l0.72-0.354
					c10.118-4.978,16.404-14.664,16.404-25.279c0-15.767-13.816-28.594-30.799-28.594c-0.182,0-0.362,0.006-0.543,0.011
					l-1.094,0.028l-0.455-0.713c-5.53-8.658-15.688-14.036-26.507-14.036c-16.983,0-30.801,12.828-30.801,28.596
					c0,0.105,0.004,0.211,0.008,0.317l0.025,1.223l-0.812,0.432c-9.587,5.09-15.542,14.604-15.542,24.83
					c0,15.77,13.817,28.599,30.8,28.599c0.919,0,1.886-0.045,2.874-0.134L144.181,183.407z" style="fill:#CCCCDE;"></path>
			</g>
			<path d="M184.931,111.738c-0.276,0-0.552,0.012-0.827,0.019
				c-4.516-7.071-12.051-12.269-20.949-14.052c7.041,1.766,12.973,6.049,16.614,11.751c0.237-0.006,3.476,5.586,3.713,5.586
				c15.31,0,22.431,8.248,22.431,22.512c0,9.913-3.717,16.231-12.515,20.563c-1.687,12.754-13.353,22.635-27.5,22.635
				c-8.608,0-16.302-3.656-21.387-9.396c-0.851,0.07-1.71,0.113-2.58,0.113c-15.31,0-27.332-7.255-27.332-21.517
				c0-9.604,4.298-14.336,12.12-20.039c-0.209-1.233-1.077-12.104,1.82-15.002c6.89-6.89,10.011-12.808,16.174-15.868
				c-12.096,4.349-20.679,15.277-20.679,28.08c0,0.215,0.011,0.428,0.017,0.646c-9.756,5.176-16.34,14.947-16.34,26.157
				c0,16.62,14.461,30.098,32.3,30.098c1.017,0,2.017-0.049,3.008-0.135c5.925,6.688,14.892,10.946,24.922,10.946
				c16.487,0,30.078-11.515,32.046-26.379c10.256-5.043,17.244-15.067,17.244-26.623
				C217.231,125.211,202.77,111.738,184.931,111.738z" style="opacity:0.1;fill:#6E6E96;enable-background:new    ;"></path>
			<g>
				<path d="M138.959,159.192c0,0,16.727,3.271,16.727,19.644c0,0,4.504,27.806-12.902,47.479h40.193
					c-0.396-0.556-35.105-46.922,3.521-74.484C162.939,165.293,138.959,159.192,138.959,159.192z" style="fill:#EDE3DA;"></path>
				<path d="M182.977,227.815h-43.523l2.207-2.494c16.741-18.923,12.589-45.975,12.545-46.245l-0.02-0.24
					c0-13.557-12.514-17.422-15.084-18.071c-0.337-0.074-0.513-0.118-0.513-0.118l0.658-2.926c0,0,0.192,0.037,0.541,0.124
					c1.349,0.294,6.157,1.227,12.81,1.227c8.306,0,20.8-1.482,33.156-8.543l1.615,2.523c-9.676,6.904-15.425,15.64-17.086,25.963
					c-3.517,21.843,12.081,43.924,13.871,46.37l1.746,2.386L182.977,227.815z M145.973,224.815h34.146
					c-4.571-6.931-15.966-26.597-12.797-46.277c1.266-7.862,4.704-14.854,10.254-20.885c-9.523,3.547-18.48,4.418-24.978,4.418
					c-1.403,0-2.726-0.039-3.956-0.104c4.313,3.1,8.505,8.286,8.544,16.75C157.523,180.925,160.875,205.587,145.973,224.815z" style="fill:#CCCCDE;"></path>
			</g>
			<g>
				<path d="M149.552,126.362" style="fill:#D57E58;"></path>
			</g>
			<path d="M176.472,159.147c0,0-25.378,32.767-5.873,67.164h12.378
				C182.977,226.313,157.223,190.319,176.472,159.147z" style="opacity:0.11;fill:#6E6E96;enable-background:new    ;"></path>
		</g>
		<g style="display:inline;">
			<g>
				<path d="M145.936,144.026c0-13.646-11.873-24.708-26.517-24.708c-0.229,0-0.454,0.01-0.682,0.016
					c-4.622-7.239-13.102-12.092-22.8-12.092c-14.644,0-26.518,11.063-26.518,24.706c0,0.178,0.012,0.354,0.015,0.528
					c-8.01,4.252-13.414,12.271-13.414,21.478c0,13.646,11.872,24.707,26.52,24.707c0.832,0,1.653-0.041,2.469-0.106
					c4.864,5.485,12.224,8.985,20.46,8.985c13.537,0,24.695-9.451,26.309-21.654C140.196,161.746,145.936,153.515,145.936,144.026z" style="fill:#D7F7E4;"></path>
				<path d="M105.469,189.041c-8.109,0-15.747-3.248-21.079-8.938c-0.649,0.039-1.26,0.059-1.85,0.059
					c-15.45,0-28.02-11.757-28.02-26.207c0-9.119,5.111-17.604,13.402-22.356c0.202-14.289,12.691-25.855,28.015-25.855
					c9.511,0,18.47,4.607,23.595,12.076c15.396,0.058,27.903,11.792,27.903,26.208c0,9.513-5.454,18.198-14.288,22.847
					C131.051,179.566,119.3,189.041,105.469,189.041z M85.635,177.001l0.496,0.56c4.779,5.39,11.828,8.48,19.338,8.48
					c12.617,0,23.288-8.749,24.821-20.351l0.105-0.796l0.72-0.354c8.216-4.042,13.32-11.902,13.32-20.515
					c0-12.797-11.223-23.208-25.017-23.208c-0.145,0-0.287,0.005-0.429,0.009l-1.061,0.028l-0.456-0.714
					c-4.489-7.031-12.741-11.399-21.536-11.399c-13.795,0-25.018,10.41-25.018,23.206l0.03,1.422l-0.812,0.432
					c-7.783,4.131-12.617,11.854-12.617,20.152c0,12.797,11.224,23.207,25.02,23.207c0.728,0,1.496-0.033,2.349-0.102
					L85.635,177.001z" style="fill:#CCCCDE;"></path>
			</g>
			<path d="M118.973,118.432c-0.228,0-0.452,0.009-0.679,0.015
				c-3.707-5.805-9.896-10.072-17.199-11.537c5.78,1.45,10.648,4.966,13.641,9.647c0.194-0.005,2.853,4.586,3.05,4.586
				c12.565,0,18.414,6.771,18.414,18.48c0,8.14-3.052,13.325-10.271,16.881c-1.384,10.474-10.961,18.584-22.576,18.584
				c-7.067,0-13.384-3.004-17.559-7.715c-0.698,0.062-1.404,0.097-2.118,0.097c-12.568,0-22.438-5.957-22.438-17.664
				c0-7.886,3.528-11.771,9.949-16.451c-0.171-1.017-0.884-9.938,1.496-12.315c5.655-5.657,8.218-10.515,13.277-13.028
				c-9.932,3.571-16.979,12.542-16.979,23.053c0,0.177,0.012,0.354,0.017,0.527c-8.013,4.25-13.415,12.271-13.415,21.477
				c0,13.646,11.873,24.707,26.518,24.707c0.834,0,1.655-0.041,2.469-0.107c4.864,5.487,12.226,8.987,20.461,8.987
				c13.536,0,24.693-9.45,26.312-21.655c8.418-4.143,14.158-12.371,14.158-21.854C145.491,129.494,133.618,118.432,118.973,118.432z" style="opacity:0.1;fill:#6E6E96;enable-background:new    ;"></path>
			<g>
				<path d="M81.232,157.392c0,0,13.731,2.688,13.731,16.129c0,0,3.697,22.822-10.595,38.978h33
					c-0.328-0.455-28.824-38.521,2.89-61.152C100.918,162.397,81.232,157.392,81.232,157.392z" style="fill:#EDE3DA;"></path>
				<path d="M117.368,213.998h-36.33l2.206-2.494c13.663-15.444,10.273-37.522,10.238-37.743l-0.02-0.24
					c0-10.929-10.097-14.051-12.182-14.577c-0.276-0.062-0.419-0.098-0.419-0.098l0.658-2.926c0,0,0.16,0.03,0.449,0.103
					c1.105,0.241,5.024,1,10.455,1c6.787,0,16.997-1.211,27.091-6.979l1.615,2.523c-7.892,5.632-12.576,12.754-13.923,21.168
					c-2.861,17.866,9.887,35.854,11.351,37.847l1.753,2.388L117.368,213.998z M87.53,210.998h26.991
					c-3.932-6.047-12.823-21.844-10.278-37.738c0.989-6.177,3.596-11.705,7.778-16.519c-7.479,2.623-14.468,3.281-19.599,3.281
					c-0.832,0-1.628-0.017-2.388-0.046c3.334,2.628,6.391,6.832,6.427,13.426C96.756,175.339,99.41,195.245,87.53,210.998z" style="fill:#CCCCDE;"></path>
			</g>
			<g>
				<path d="M89.928,130.438" style="fill:#D57E58;"></path>
			</g>
			<path d="M112.028,157.354c0,0-20.835,26.897-4.819,55.142h10.162
				C117.369,212.496,96.225,182.944,112.028,157.354z" style="opacity:0.11;fill:#6E6E96;enable-background:new    ;"></path>
		</g>
		<g style="display:inline;">
			<g>
				<path d="M253.159,168.164c0-12.345-10.74-22.351-23.988-22.351c-0.203,0-0.407,0.008-0.611,0.015
					c-4.186-6.55-11.854-10.938-20.625-10.938c-13.248,0-23.984,10.008-23.984,22.351c0,0.161,0.012,0.317,0.014,0.479
					c-7.244,3.851-12.135,11.104-12.135,19.432c0,12.347,10.735,22.353,23.984,22.353c0.753,0,1.497-0.039,2.23-0.103
					c4.398,4.968,11.061,8.134,18.511,8.134c12.245,0,22.339-8.552,23.799-19.593C247.965,184.19,253.159,176.746,253.159,168.164z" style="fill:#D7F7E4;"></path>
				<path d="M216.555,209.035c-7.355,0-14.282-2.937-19.126-8.084c-0.561,0.035-1.094,0.053-1.615,0.053
					c-14.052,0-25.484-10.7-25.484-23.853c0-8.271,4.622-15.973,12.125-20.31c0.228-12.968,11.57-23.452,25.48-23.452
					c8.62,0,16.746,4.166,21.419,10.925c13.971,0.092,25.306,10.755,25.306,23.85c0,8.631-4.937,16.518-12.937,20.763
					C239.782,200.446,229.111,209.035,216.555,209.035z M198.667,197.842l0.5,0.565c4.292,4.848,10.63,7.628,17.388,7.628
					c11.341,0,20.933-7.862,22.312-18.289l0.105-0.795l0.719-0.354c7.383-3.639,11.969-10.702,11.969-18.433
					c0-11.497-10.088-20.851-22.488-20.851c-0.163,0-0.328,0.006-0.492,0.012l-0.854,0.029l-0.528-0.719
					c-4.039-6.32-11.458-10.246-19.361-10.246c-12.397,0-22.484,9.354-22.484,20.851l0.024,1.375l-0.807,0.429
					c-6.994,3.718-11.339,10.656-11.339,18.107c0,11.498,10.087,20.853,22.484,20.853c0.66,0,1.348-0.031,2.102-0.097
					L198.667,197.842z" style="fill:#CCCCDE;"></path>
			</g>
			<path d="M228.767,145.008c-0.206,0-0.409,0.013-0.614,0.017
				c-3.354-5.25-8.947-9.11-15.558-10.438c5.229,1.312,9.633,4.492,12.339,8.729c0.175-0.004,2.579,4.147,2.757,4.147
				c11.368,0,16.655,6.123,16.655,16.72c0,7.36-2.757,12.056-9.291,15.271c-1.252,9.473-9.915,16.813-20.423,16.813
				c-6.396,0-12.106-2.722-15.884-6.979c-0.631,0.055-1.271,0.086-1.916,0.086c-11.368,0-20.299-5.39-20.299-15.979
				c0-7.136,3.188-10.646,9.002-14.886c-0.156-0.918-0.805-8.985,1.353-11.141c5.116-5.117,7.437-9.513,12.011-11.785
				c-8.979,3.229-15.355,11.347-15.355,20.854c0,0.157,0.012,0.315,0.016,0.479c-7.246,3.847-12.137,11.104-12.137,19.429
				c0,12.345,10.738,22.351,23.988,22.351c0.754,0,1.496-0.035,2.229-0.101c4.401,4.968,11.062,8.134,18.509,8.134
				c12.245,0,22.338-8.555,23.801-19.593c7.613-3.743,12.811-11.19,12.811-19.771C252.754,155.017,242.016,145.008,228.767,145.008z" style="opacity:0.1;fill:#6E6E96;enable-background:new    ;"></path>
			<g>
				<path d="M194.625,180.252c0,0,12.422,2.433,12.422,14.588c0,0,3.345,20.646-9.584,35.261h29.853
					c-0.296-0.41-26.071-34.849,2.615-55.317C212.435,184.783,194.625,180.252,194.625,180.252z" style="fill:#EDE3DA;"></path>
				<path d="M227.316,231.601h-33.182l2.206-2.494c12.315-13.922,9.259-33.827,9.227-34.026l-0.02-0.24
					c0-9.771-9.035-12.57-10.908-13.045c-0.252-0.056-0.384-0.089-0.384-0.089l0.658-2.926c0,0,0.147,0.028,0.412,0.094
					c1,0.218,4.532,0.902,9.428,0.902c6.122,0,15.33-1.093,24.434-6.296l1.615,2.523c-7.105,5.07-11.324,11.48-12.536,19.053
					c-2.58,16.108,8.92,32.333,10.24,34.131l1.754,2.388L227.316,231.601z M200.609,228.601h23.868
					c-3.633-5.64-11.453-19.779-9.174-34.019c0.872-5.444,3.125-10.332,6.725-14.61c-6.594,2.236-12.736,2.805-17.274,2.805
					c-0.6,0-1.18-0.01-1.739-0.027c2.908,2.411,5.498,6.182,5.533,11.973C208.82,196.534,211.169,214.37,200.609,228.601z" style="fill:#CCCCDE;"></path>
			</g>
			<g>
				<path d="M202.493,155.871" style="fill:#D57E58;"></path>
			</g>
			<path d="M222.485,180.22c0,0-18.847,24.334-4.359,49.881h9.19
				C227.316,230.101,208.189,203.369,222.485,180.22z" style="opacity:0.11;fill:#6E6E96;enable-background:new    ;"></path>
		</g>
		<g style="display:inline;">
			<g>
				<path d="M88.893,166.313c0-13.111-11.408-23.738-25.479-23.738c-0.222,0-0.438,0.008-0.653,0.014
					c-4.443-6.955-12.589-11.615-21.907-11.615c-14.069,0-25.479,10.629-25.479,23.738c0,0.17,0.011,0.336,0.015,0.506
					C7.694,159.304,2.5,167.013,2.5,175.856c0,13.106,11.407,23.735,25.479,23.735c0.8,0,1.59-0.041,2.372-0.104
					c4.674,5.271,11.745,8.639,19.659,8.639c13.007,0,23.729-9.082,25.279-20.81C83.378,183.336,88.893,175.429,88.893,166.313z" style="fill:#D7F7E4;"></path>
				<path d="M50.01,209.627c-7.795,0-15.142-3.122-20.278-8.592c-0.622,0.038-1.201,0.057-1.753,0.057
					C13.103,201.092,1,189.771,1,175.856c0-8.773,4.91-16.938,12.878-21.517c0.213-13.746,12.232-24.866,26.976-24.866
					c9.146,0,17.764,4.425,22.703,11.602c14.811,0.072,26.836,11.366,26.836,25.238c0,9.15-5.242,17.507-13.734,21.989
					C74.627,200.515,63.318,209.627,50.01,209.627z M30.977,197.934l0.496,0.56c4.584,5.169,11.341,8.134,18.537,8.134
					c12.094,0,22.323-8.386,23.792-19.506l0.105-0.795l0.719-0.354c7.875-3.876,12.766-11.408,12.766-19.658
					c0-12.263-10.757-22.238-23.979-22.238c-0.164,0-0.323,0.005-0.483,0.01l-0.978,0.026l-0.457-0.715
					c-4.304-6.737-12.214-10.923-20.643-10.923c-13.222,0-23.979,9.976-23.979,22.238l0.036,1.396l-0.818,0.435
					C8.634,160.503,4,167.903,4,175.856c0,12.261,10.757,22.235,23.979,22.235c0.684,0,1.421-0.032,2.252-0.099L30.977,197.934z" style="fill:#CCCCDE;"></path>
			</g>
			<path d="M62.986,141.72c-0.219,0-0.435,0.01-0.65,0.016
				c-3.563-5.577-9.506-9.678-16.525-11.086c5.553,1.394,10.231,4.771,13.106,9.271c0.186-0.004,2.737,4.406,2.928,4.406
				c12.076,0,17.692,6.506,17.692,17.758c0,7.82-2.931,12.806-9.87,16.222c-1.33,10.063-10.531,17.854-21.693,17.854
				c-6.792,0-12.859-2.886-16.871-7.412c-0.67,0.058-1.348,0.092-2.035,0.092c-12.074,0-21.561-5.723-21.561-16.975
				c0-7.574,3.391-11.308,9.561-15.808c-0.165-0.976-0.85-9.55,1.438-11.836c5.435-5.435,7.896-10.103,12.758-12.517
				c-9.541,3.431-16.312,12.051-16.312,22.147c0,0.17,0.011,0.338,0.015,0.508c-7.696,4.084-12.89,11.791-12.89,20.638
				c0,13.106,11.406,23.735,25.479,23.735c0.801,0,1.591-0.039,2.373-0.104c4.674,5.272,11.745,8.64,19.659,8.64
				c13.006,0,23.728-9.082,25.276-20.81c8.091-3.979,13.604-11.892,13.604-21.002C88.466,152.347,77.058,141.72,62.986,141.72z" style="opacity:0.1;fill:#6E6E96;enable-background:new    ;"></path>
			<g>
				<path d="M26.723,179.151c0,0,13.193,2.584,13.193,15.496c0,0,3.553,21.933-10.181,37.451h31.707
					c-0.312-0.438-27.692-37.017,2.777-58.761C45.638,183.963,26.723,179.151,26.723,179.151z" style="fill:#EDE3DA;"></path>
				<path d="M61.443,233.599H26.405l2.207-2.494c13.111-14.814,9.858-36.005,9.824-36.217l-0.02-0.24
					c0-10.453-9.66-13.442-11.658-13.948c-0.267-0.059-0.405-0.094-0.405-0.094l0.658-2.926c0,0,0.155,0.029,0.434,0.099
					c1.062,0.231,4.82,0.96,10.029,0.96c6.514,0,16.313-1.163,26.001-6.702l1.616,2.522c-7.56,5.396-12.051,12.216-13.349,20.271
					c-2.754,17.102,9.48,34.428,10.884,36.347l1.746,2.386L61.443,233.599z M32.891,230.599h25.712
					c-3.807-5.892-12.27-21.057-9.823-36.245c0.944-5.862,3.402-11.116,7.335-15.701c-7.115,2.464-13.755,3.086-18.642,3.086
					c-0.734,0-1.44-0.014-2.115-0.037c3.159,2.539,6.021,6.566,6.057,12.828C41.701,196.416,44.23,215.475,32.891,230.599z" style="fill:#CCCCDE;"></path>
			</g>
			<g>
				<path d="M35.078,153.254" style="fill:#D57E58;"></path>
			</g>
			<path d="M56.313,179.117c0,0-20.02,25.848-4.633,52.981h9.764
				C61.444,232.101,41.129,203.707,56.313,179.117z" style="opacity:0.11;fill:#6E6E96;enable-background:new    ;"></path>
		</g>
	</g>
	<g style="opacity:0.43;" id="Layer_2_1_">
		<g>
			<rect height="42.663" width="54.813" style="fill:#FFFFFF;" y="4.391" x="10.357"></rect>
			<path d="M65.17,48.554H10.357c-0.829,0-1.5-0.671-1.5-1.5V4.391c0-0.829,0.671-1.5,1.5-1.5H65.17
				c0.829,0,1.5,0.671,1.5,1.5v42.663C66.67,47.882,65.999,48.554,65.17,48.554z M11.857,45.554H63.67V5.891H11.857V45.554z" style="fill:#CCCCDE;"></path>
		</g>
		<g id="Layer_2_2_">
			<rect height="33.038" width="44.09" style="fill:#D6F1FF;" y="9.048" x="15.431"></rect>
		</g>
		<g style="opacity:0.47;" id="Layer_3_4_">
			<path d="M15.431,22.553c0,0,1.722-2.41,6.028-2.41
				c4.306,0,1.379-2.929,6.545-2.929s8.438-2.583,14.641-0.173c6.2,2.412,16.877,2.529,16.877,2.529l0.141,8.655l-44.23,2.422
				L15.431,22.553L15.431,22.553z" style="opacity:0.08;enable-background:new    ;"></path>
			<polygon points="36.379,23.966 15.431,36.224 15.431,41.976 59.66,41.976" style="fill:#FFE5B0;"></polygon>
			<path d="M15.431,28.699c0,0,6.473-3.727,10.531-3.354c4.057,0.37-2.618,6.251-2.618,6.251l-7.913,4.63
				V28.699z" style="fill:#FFE5B0;"></path>
			<path d="M25.962,25.343c0,0,1.4,0.621-1.616,1.789c-3.019,1.166-4.001,6.295,0.913,3.808
				c4.915-2.487,11.119-6.973,11.119-6.973S31.998,26.719,25.962,25.343z" style="fill:#F2D9A6;"></path>
			<path d="M42.644,24.087c0,0,5.567-3.445,16.824-1.188l0.192,3.377L42.644,24.087z" style="fill:#FFE5B0;"></path>
			<path d="M25.26,30.939c2.064-1.044,4.354-2.441,6.318-3.71c-4.304-0.409-4.979-1.754-4.979-1.754
				l-0.002-0.002c-0.211-0.039-0.422-0.081-0.637-0.129c0,0,1.404,0.621-1.616,1.788C21.328,28.298,20.346,33.427,25.26,30.939z" style="fill:#D6C093;"></path>
			<path d="M44.784,23.184c0,0,8.273,0.019,14.776,1.389l0.1,1.703
				L44.784,23.184z" style="opacity:0.42;fill:#D6C093;enable-background:new    ;"></path>
			<g>
				<path d="M40.986,22.856c0,0-7.582-0.622-3.792,4.196c3.792,4.82,22.468,14.924,22.468,14.924V26.277
					C59.66,26.276,46.321,22.856,40.986,22.856z" style="fill:#D6C093;"></path>
			</g>
			<path d="M15.431,37.31c0,0,11.729-2.439,17.231-10.003
				c0,0-3.108,6.215-17.231,12.586V37.31z" style="opacity:0.27;fill:#D6C093;enable-background:new    ;"></path>
			<path d="M38.03,27.973c0,0,10.644,8.508,12.71,14.003h8.922
				L38.03,27.973z" style="opacity:0.25;fill:#D6C093;enable-background:new    ;"></path>
			<g>
				<path d="M39.612,28.37c-4.429-5.555,4.433-4.837,4.433-4.837c0.956,0,1.978,0.004,3.023,0.009
					c-2.352-0.402-4.547-0.686-6.082-0.686c0,0-7.582-0.621-3.792,4.197c1.681,2.135,6.284,5.31,10.89,8.182
					C44.643,32.992,41.32,30.509,39.612,28.37z M59.35,26.197v15.58c0,0-0.439-0.226-1.19-0.627
					c0.941,0.524,1.502,0.826,1.502,0.826V26.277C59.66,26.276,59.549,26.248,59.35,26.197z" style="fill:#C7B289;"></path>
			</g>
			<g>
				<path d="M25.38,27.132c1.142-0.442,1.647-0.804,1.841-1.084c-0.493-0.321-0.62-0.574-0.62-0.574
					s-0.002,0-0.003,0c-0.21-0.039-0.421-0.082-0.636-0.13c0,0,1.4,0.621-1.616,1.789c-2.624,1.013-3.709,5.02-0.719,4.416
					C22.011,31.074,23.129,28.001,25.38,27.132z" style="fill:#C7B289;"></path>
			</g>
		</g>
	</g>
	<g style="opacity:0.43;enable-background:new    ;">
		<rect height="13.111" width="159" style="fill:#FFFFFF;" y="47.054" x="3.304"></rect>
		<path d="M163.804,61.665h-162V45.554h162V61.665z M4.804,58.665h156V48.554h-156V58.665z" style="fill:#CCCCDE;"></path>
	</g>
	<g style="opacity:0.43;enable-background:new    ;">
		<rect height="42.663" width="12.055" style="fill:#F0F0FF;" y="4.391" x="80.225"></rect>
		<path d="M92.28,48.554H80.225c-0.829,0-1.5-0.671-1.5-1.5V4.391c0-0.829,0.671-1.5,1.5-1.5H92.28
			c0.829,0,1.5,0.671,1.5,1.5v42.663C93.78,47.882,93.108,48.554,92.28,48.554z M81.725,45.554h9.055V5.891h-9.055V45.554z" style="fill:#CCCCDE;"></path>
	</g>
	<g style="opacity:0.43;enable-background:new    ;">
		<rect height="42.663" width="12.055" style="fill:#BFF4FF;" y="4.391" x="91.865"></rect>
		<path d="M103.92,48.554H91.865c-0.829,0-1.5-0.671-1.5-1.5V4.391c0-0.829,0.671-1.5,1.5-1.5h12.055
			c0.829,0,1.5,0.671,1.5,1.5v42.663C105.42,47.882,104.749,48.554,103.92,48.554z M93.365,45.554h9.055V5.891h-9.055V45.554z" style="fill:#CCCCDE;"></path>
	</g>
	<g style="opacity:0.43;enable-background:new    ;">
		<rect height="42.663" width="12.055" style="fill:#F4FFBA;" y="4.391" x="103.92"></rect>
		<path d="M115.975,48.554H103.92c-0.829,0-1.5-0.671-1.5-1.5V4.391c0-0.829,0.671-1.5,1.5-1.5h12.055
			c0.829,0,1.5,0.671,1.5,1.5v42.663C117.475,47.882,116.803,48.554,115.975,48.554z M105.42,45.554h9.055V5.891h-9.055V45.554z" style="fill:#CCCCDE;"></path>
	</g>
	<g style="opacity:0.43;enable-background:new    ;">
		
			<rect height="42.665" width="11.145" style="fill:#FFDBDB;" transform="matrix(-0.8534 0.5213 -0.5213 -0.8534 259.1885 -20.9869)" y="4.624" x="126.973"></rect>
		<path d="M138.912,48.565c-0.505,0-0.998-0.255-1.281-0.718L115.39,11.438
			c-0.207-0.339-0.271-0.747-0.178-1.134s0.336-0.721,0.676-0.928l9.511-5.81c0.34-0.207,0.749-0.271,1.134-0.178
			c0.387,0.093,0.721,0.336,0.928,0.676l22.24,36.41c0.432,0.707,0.209,1.63-0.498,2.062l-9.51,5.809
			C139.449,48.495,139.179,48.565,138.912,48.565z M118.732,11.154l20.677,33.849l6.95-4.245l-20.677-33.85L118.732,11.154z" style="fill:#CCCCDE;"></path>
	</g>
	<g style="opacity:0.43;enable-background:new    ;">
		<rect height="33" width="39.6" style="fill:#FFF2E0;" y="101.604" x="84.074"></rect>
		<path d="M123.674,136.104h-39.6c-0.829,0-1.5-0.672-1.5-1.5v-33c0-0.829,0.671-1.5,1.5-1.5h39.6
			c0.829,0,1.5,0.671,1.5,1.5v33C125.174,135.433,124.503,136.104,123.674,136.104z M85.574,133.104h36.6v-30h-36.6V133.104z" style="fill:#CCCCDE;"></path>
	</g>
	<g style="opacity:0.43;enable-background:new    ;">
		<rect height="9.2" width="44.4" style="fill:#FFF2E0;" y="101.604" x="81.673"></rect>
		<path d="M126.073,112.304h-44.4c-0.829,0-1.5-0.671-1.5-1.5v-9.2c0-0.829,0.671-1.5,1.5-1.5h44.4
			c0.829,0,1.5,0.671,1.5,1.5v9.2C127.573,111.632,126.902,112.304,126.073,112.304z M83.173,109.304h41.4v-6.2h-41.4V109.304z" style="fill:#CCCCDE;"></path>
	</g>
	<rect height="3" width="12" style="opacity:0.43;fill:#CCCCDE;enable-background:new    ;" y="116.104" x="97.873"></rect>
	<g style="opacity:0.43;enable-background:new    ;">
		<rect height="7.528" width="8.938" style="fill:#F0F0FF;" y="244.856" x="110.961"></rect>
		<path d="M119.9,253.885h-8.938c-0.829,0-1.5-0.672-1.5-1.5v-7.528c0-0.828,0.671-1.5,1.5-1.5h8.938
			c0.829,0,1.5,0.672,1.5,1.5v7.528C121.4,253.213,120.728,253.885,119.9,253.885z M112.461,250.885h5.938v-4.528h-5.938V250.885z" style="fill:#CCCCDE;"></path>
	</g>
	<g style="opacity:0.43;enable-background:new    ;">
		<rect height="7.528" width="8.938" style="fill:#F0F0FF;" y="244.856" x="51.908"></rect>
		<path d="M60.847,253.885h-8.938c-0.829,0-1.5-0.672-1.5-1.5v-7.528c0-0.828,0.671-1.5,1.5-1.5h8.938
			c0.829,0,1.5,0.672,1.5,1.5v7.528C62.347,253.213,61.676,253.885,60.847,253.885z M53.408,250.885h5.938v-4.528h-5.938V250.885z" style="fill:#CCCCDE;"></path>
	</g>
	<g style="opacity:0.43;enable-background:new    ;">
		<polyline points="181.305,134.526 177.247,115.445 159.997,115.445 156.209,134.799" style="fill:#F0F0FF;"></polyline>
		<polygon points="157.681,135.087 154.738,134.511 158.762,113.945 178.462,113.945 182.772,134.215 
			179.838,134.838 176.032,116.945 161.233,116.945" style="fill:#6E6E96;"></polygon>
	</g>
	<path d="M186.028,136.299h-34.541c-0.828,0-1.5-0.672-1.5-1.5
		s0.672-1.5,1.5-1.5h34.541c0.828,0,1.5,0.672,1.5,1.5S186.856,136.299,186.028,136.299z" style="opacity:0.43;fill:#6E6E96;enable-background:new    ;"></path>
	<path d="M214.811,112.425c0,1.982-1.62,3.604-3.604,3.604h-84.899
		c-1.981,0-3.604-1.622-3.604-3.604V50.752c0-1.982,1.622-3.604,3.604-3.604h84.899c1.98,0,3.604,1.622,3.604,3.604V112.425z" style="opacity:0.43;fill:#F0F0FF;enable-background:new    ;"></path>
	<rect height="12" width="10.756" style="opacity:0.43;fill:#FFFFFF;enable-background:new    ;" y="52.875" x="163.379"></rect>
	<rect height="12" width="6.424" style="opacity:0.43;fill:#FFFFFF;enable-background:new    ;" y="51.09" x="165.545"></rect>
	<g style="opacity:0.43;enable-background:new    ;">
		<rect height="46.308" width="76.29" style="fill:#96DFFF;" y="55.558" x="130.612"></rect>
		<path d="M206.902,103.366h-76.29c-0.828,0-1.5-0.671-1.5-1.5V55.558c0-0.829,0.672-1.5,1.5-1.5h76.29
			c0.828,0,1.5,0.671,1.5,1.5v46.308C208.402,102.695,207.73,103.366,206.902,103.366z M132.112,100.366h73.29V57.058h-73.29
			V100.366z" style="fill:#CCCCDE;"></path>
	</g>
	<path d="M211.207,117.529h-84.899c-2.814,0-5.104-2.29-5.104-5.104
		V50.752c0-2.814,2.29-5.104,5.104-5.104h84.899c2.814,0,5.104,2.29,5.104,5.104v61.673
		C216.311,115.239,214.022,117.529,211.207,117.529z M126.308,48.648c-1.16,0-2.104,0.944-2.104,2.104v61.673
		c0,1.161,0.944,2.104,2.104,2.104h84.899c1.16,0,2.104-0.944,2.104-2.104V50.752c0-1.16-0.943-2.104-2.104-2.104H126.308z" style="opacity:0.43;fill:#CCCCDE;enable-background:new    ;"></path>
	<rect height="4.249" width="18.391" style="opacity:0.43;fill:#6E6E96;enable-background:new    ;" y="117.23" x="159.883"></rect>
	<g style="opacity:0.43;">
		<polyline points="128.215,149.494 128.215,248.31 42.575,248.31 42.575,149.494" style="fill:#FFFFFF;"></polyline>
		<path d="M128.215,249.81h-85.64c-0.829,0-1.5-0.672-1.5-1.5v-98.815c0-0.828,0.671-1.5,1.5-1.5
			s1.5,0.672,1.5,1.5v97.315h82.64v-97.315c0-0.828,0.671-1.5,1.5-1.5c0.828,0,1.5,0.672,1.5,1.5v98.815
			C129.715,249.138,129.043,249.81,128.215,249.81z" style="fill:#CCCCDE;"></path>
	</g>
	<g style="opacity:0.43;">
		<rect height="101.639" width="9.408" style="fill:#FFFFFF;" y="149.494" x="214.954"></rect>
		<path d="M224.363,252.633h-9.408c-0.828,0-1.5-0.672-1.5-1.5V149.494c0-0.828,0.672-1.5,1.5-1.5h9.408
			c0.828,0,1.5,0.672,1.5,1.5v101.639C225.863,251.961,225.191,252.633,224.363,252.633z M216.454,249.633h6.408v-98.639h-6.408
			V249.633z" style="fill:#CCCCDE;"></path>
	</g>
	<g style="opacity:0.43;enable-background:new    ;">
		<rect height="15.369" width="215.512" style="fill:#FFFFFF;" y="134.123" x="27.047"></rect>
		<path d="M242.559,150.992H27.047c-0.829,0-1.5-0.672-1.5-1.5v-15.369c0-0.828,0.671-1.5,1.5-1.5h215.512
			c0.828,0,1.5,0.672,1.5,1.5v15.369C244.059,150.32,243.387,150.992,242.559,150.992z M28.547,147.992h212.512v-12.369H28.547
			V147.992z" style="fill:#CCCCDE;"></path>
	</g>
	<g style="opacity:0.43;enable-background:new    ;">
		<rect height="22.586" width="70.582" style="fill:#FFFFFF;" y="157.963" x="50.575"></rect>
		<path d="M121.157,182.049H50.575c-0.829,0-1.5-0.672-1.5-1.5v-22.586c0-0.828,0.671-1.5,1.5-1.5h70.582
			c0.829,0,1.5,0.672,1.5,1.5v22.586C122.657,181.377,121.986,182.049,121.157,182.049z M52.075,179.049h67.582v-19.586H52.075
			V179.049z" style="fill:#CCCCDE;"></path>
	</g>
	<g style="opacity:0.43;enable-background:new    ;">
		<rect height="23.344" width="70.582" style="fill:#FFFFFF;" y="187.138" x="50.575"></rect>
		<path d="M121.157,211.981H50.575c-0.829,0-1.5-0.672-1.5-1.5v-23.344c0-0.828,0.671-1.5,1.5-1.5h70.582
			c0.829,0,1.5,0.672,1.5,1.5v23.344C122.657,211.31,121.986,211.981,121.157,211.981z M52.075,208.981h67.582v-20.344H52.075
			V208.981z" style="fill:#CCCCDE;"></path>
	</g>
	<g style="opacity:0.43;enable-background:new    ;">
		<rect height="24.153" width="70.583" style="fill:#FFFFFF;" y="216.313" x="50.575"></rect>
		<path d="M121.158,241.967H50.575c-0.829,0-1.5-0.672-1.5-1.5v-24.153c0-0.828,0.671-1.5,1.5-1.5h70.583
			c0.829,0,1.5,0.672,1.5,1.5v24.153C122.658,241.295,121.987,241.967,121.158,241.967z M52.075,238.967h67.583v-21.153H52.075
			V238.967z" style="fill:#CCCCDE;"></path>
	</g>
	<path d="M93.374,170.756H78.356c-0.829,0-1.5-0.672-1.5-1.5
		s0.671-1.5,1.5-1.5h15.019c0.829,0,1.5,0.672,1.5,1.5S94.203,170.756,93.374,170.756z" style="opacity:0.43;fill:#CCCCDE;enable-background:new    ;"></path>
	<path d="M93.374,200.935H78.356c-0.829,0-1.5-0.672-1.5-1.5
		s0.671-1.5,1.5-1.5h15.019c0.829,0,1.5,0.672,1.5,1.5S94.203,200.935,93.374,200.935z" style="opacity:0.43;fill:#CCCCDE;enable-background:new    ;"></path>
	<path d="M93.374,230.095H78.356c-0.829,0-1.5-0.672-1.5-1.5
		s0.671-1.5,1.5-1.5h15.019c0.829,0,1.5,0.672,1.5,1.5S94.203,230.095,93.374,230.095z" style="opacity:0.43;fill:#CCCCDE;enable-background:new    ;"></path>
	<rect height="3" width="67.053" style="opacity:0.43;fill:#FFFFFF;enable-background:new    ;" y="159.287" x="52.378"></rect>
	<rect height="3" width="67.288" style="opacity:0.43;fill:#FFFFFF;enable-background:new    ;" y="188.459" x="52.143"></rect>
	<rect height="3" width="67.522" style="opacity:0.43;fill:#FFFFFF;enable-background:new    ;" y="217.871" x="51.908"></rect>
	<g style="opacity:0.43;">
		<rect height="43.604" width="10.143" style="fill:#FFFFFF;" y="200.213" x="165.069"></rect>
		<path d="M175.211,245.317h-10.143c-0.828,0-1.5-0.672-1.5-1.5v-43.604c0-0.828,0.672-1.5,1.5-1.5h10.143
			c0.828,0,1.5,0.672,1.5,1.5v43.604C176.711,244.646,176.039,245.317,175.211,245.317z M166.569,242.317h7.143v-40.604h-7.143
			V242.317z" style="fill:#CCCCDE;"></path>
	</g>
	<g style="opacity:0.43;enable-background:new    ;">
		<path d="M191.37,243.815c0,2.229-1.824,4.056-4.059,4.056h-34.35c-2.23,0-4.055-1.824-4.055-4.056l0,0
			c0-2.231,1.821-4.058,4.055-4.058h34.35C189.543,239.761,191.37,241.584,191.37,243.815L191.37,243.815z" style="fill:#CCCCDE;"></path>
		<path d="M187.312,248.371h-34.35c-2.512,0-4.555-2.044-4.555-4.556c0-2.513,2.043-4.558,4.555-4.558h34.35
			c2.514,0.003,4.559,2.048,4.559,4.558C191.87,246.327,189.825,248.371,187.312,248.371z M152.962,240.258
			c-1.96,0-3.555,1.596-3.555,3.558c0,1.961,1.595,3.556,3.555,3.556h34.35c1.962,0,3.559-1.595,3.559-3.556
			c0-1.959-1.597-3.555-3.56-3.558H152.962z" style="fill:#CCCCDE;"></path>
	</g>
	<g style="opacity:0.43;">
		<path d="M182.307,255.455c-0.828,0-1.5-0.672-1.5-1.5v-6.084c0-0.828,0.672-1.5,1.5-1.5s1.5,0.672,1.5,1.5
			v6.084C183.807,254.783,183.135,255.455,182.307,255.455z" style="fill:#CCCCDE;"></path>
		<path d="M157.97,255.455c-0.828,0-1.5-0.672-1.5-1.5v-6.084c0-0.828,0.672-1.5,1.5-1.5s1.5,0.672,1.5,1.5
			v6.084C159.47,254.783,158.798,255.455,157.97,255.455z" style="fill:#CCCCDE;"></path>
	</g>
	<g style="opacity:0.43;enable-background:new    ;">
		<rect height="11.153" width="19.014" style="fill:#FFFFFF;" y="228.604" x="161.266"></rect>
		<path d="M180.28,241.258h-19.014c-0.828,0-1.5-0.672-1.5-1.5v-11.153c0-0.828,0.672-1.5,1.5-1.5h19.014
			c0.828,0,1.5,0.672,1.5,1.5v11.153C181.78,240.586,181.108,241.258,180.28,241.258z M162.766,238.258h16.014v-8.153h-16.014
			V238.258z" style="fill:#CCCCDE;"></path>
	</g>
	<g style="opacity:0.43;enable-background:new    ;">
		<rect height="11.151" width="7.541" style="fill:#FFFFFF;" y="189.062" x="166.336"></rect>
		<path d="M173.877,201.713h-7.541c-0.828,0-1.5-0.672-1.5-1.5v-11.151c0-0.828,0.672-1.5,1.5-1.5h7.541
			c0.828,0,1.5,0.672,1.5,1.5v11.151C175.377,201.041,174.705,201.713,173.877,201.713z M167.836,198.713h4.541v-8.151h-4.541
			V198.713z" style="fill:#CCCCDE;"></path>
	</g>
	<g style="opacity:0.43;enable-background:new    ;">
		<path d="M214.247,185.004c0,2.787-2.28,5.069-5.07,5.069H131.1c-2.788,0-5.067-2.282-5.067-5.069v-3.043
			c0-2.787,2.279-5.067,5.067-5.067h78.076c2.79,0,5.07,2.28,5.07,5.067L214.247,185.004L214.247,185.004z" style="fill:#FACDD4;"></path>
		<path d="M209.177,190.573H131.1c-3.07,0-5.567-2.498-5.567-5.569v-3.043c0-3.07,2.498-5.567,5.567-5.567
			h78.076c3.071,0,5.57,2.497,5.57,5.567l0.001,3.043C214.747,188.075,212.248,190.573,209.177,190.573z M131.1,177.394
			c-2.519,0-4.567,2.049-4.567,4.567v3.043c0,2.52,2.049,4.569,4.567,4.569h78.077c2.521,0,4.57-2.05,4.57-4.569l-0.001-3.043
			c0-2.519-2.05-4.567-4.57-4.567H131.1z" style="fill:#CCCCDE;"></path>
	</g>
	<path d="M209.177,191.573H131.1c-3.621,0-6.567-2.947-6.567-6.569
		v-3.043c0-3.621,2.946-6.567,6.567-6.567h78.076c3.623,0,6.57,2.946,6.57,6.567l0.001,3.043
		C215.747,188.626,212.8,191.573,209.177,191.573z M131.1,178.394c-1.967,0-3.567,1.601-3.567,3.567v3.043
		c0,1.968,1.601,3.569,3.567,3.569h78.077c1.969,0,3.57-1.602,3.57-3.569l-0.001-3.043c0-1.967-1.602-3.567-3.57-3.567H131.1z" style="opacity:0.43;fill:#CCCCDE;enable-background:new    ;"></path>
	<g style="opacity:0.43;enable-background:new    ;">
		<path d="M191.37,243.815c0,2.229-1.824,4.056-4.059,4.056h-34.35c-2.23,0-4.055-1.824-4.055-4.056l0,0
			c0-2.231,1.821-4.058,4.055-4.058h34.35C189.543,239.761,191.37,241.584,191.37,243.815L191.37,243.815z" style="fill:#FFFFFF;"></path>
		<path d="M187.312,249.371h-34.35c-3.062,0-5.555-2.492-5.555-5.556c0-3.064,2.492-5.558,5.555-5.558h34.35
			c3.065,0.004,5.559,2.497,5.559,5.558C192.87,246.879,190.377,249.371,187.312,249.371z M152.962,241.258
			c-1.408,0-2.555,1.147-2.555,2.558c0,1.409,1.146,2.556,2.555,2.556h34.35c1.411,0,2.559-1.146,2.559-2.556
			c0-1.408-1.148-2.556-2.561-2.558H152.962z" style="fill:#CCCCDE;"></path>
	</g>
	<g style="opacity:0.43;">
		<g>
			<path d="M63.377,131.045c0,1.394-1.141,2.528-2.53,2.528H35.045c-1.394,0-2.53-1.137-2.53-2.528v-0.694
				c0-1.393,1.138-2.529,2.53-2.529h25.802c1.391,0,2.53,1.139,2.53,2.529V131.045z" style="fill:#F0F0FF;"></path>
			<path d="M60.847,135.073H35.045c-2.222,0-4.03-1.807-4.03-4.028v-0.694c0-2.222,1.808-4.029,4.03-4.029
				h25.802c2.222,0,4.03,1.808,4.03,4.029v0.694C64.877,133.267,63.069,135.073,60.847,135.073z M35.045,129.321
				c-0.568,0-1.03,0.462-1.03,1.029v0.694c0,0.567,0.462,1.028,1.03,1.028h25.802c0.568,0,1.03-0.461,1.03-1.028v-0.694
				c0-0.558-0.472-1.029-1.03-1.029H35.045z" style="fill:#CCCCDE;"></path>
		</g>
		
			<rect height="43.931" width="3" style="fill:#CCCCDE;" transform="matrix(0.7061 0.7081 -0.7081 0.7061 71.9809 -7.0335)" y="61.237" x="42.964"></rect>
		
			<rect height="3" width="24.377" style="fill:#CCCCDE;" transform="matrix(0.5397 0.8419 -0.8419 0.5397 115.7303 23.442)" y="116.054" x="24.24"></rect>
		<g>
			<path d="M92.972,72.091c-8.763-8.764-21.223-10.646-27.687-4.183c-6.466,6.464-4.581,18.924,4.183,27.688
				L92.972,72.091z" style="fill:#CEF2DA;"></path>
			<path d="M69.468,97.717l-1.061-1.061c-4.464-4.464-7.385-9.983-8.225-15.542
				c-0.866-5.729,0.57-10.795,4.042-14.267c2.802-2.802,6.646-4.283,11.115-4.283c6.404,0,13.393,3.165,18.693,8.466l1.061,1.061
				L69.468,97.717z M75.34,65.564c-3.656,0-6.766,1.177-8.994,3.404c-2.781,2.781-3.917,6.935-3.197,11.697
				c0.679,4.493,2.917,8.983,6.346,12.782l21.328-21.329C86.238,67.992,80.546,65.564,75.34,65.564z" style="fill:#CCCCDE;"></path>
		</g>
		<g>
			<circle r="5.083" cy="63.39" cx="63.772" style="fill:#F0F0FF;"></circle>
			<path d="M63.772,69.973c-3.63,0-6.583-2.953-6.583-6.583s2.953-6.583,6.583-6.583s6.583,2.953,6.583,6.583
				S67.402,69.973,63.772,69.973z M63.772,59.807c-1.976,0-3.583,1.607-3.583,3.583s1.607,3.583,3.583,3.583
				s3.583-1.607,3.583-3.583S65.747,59.807,63.772,59.807z" style="fill:#CCCCDE;"></path>
		</g>
		<g>
			<circle r="5.262" cy="102.672" cx="27.144" style="fill:#F0F0FF;"></circle>
			<path d="M27.144,109.434c-3.729,0-6.762-3.034-6.762-6.762s3.033-6.762,6.762-6.762
				c3.729,0,6.763,3.033,6.763,6.762S30.873,109.434,27.144,109.434z M27.144,98.91c-2.074,0-3.762,1.688-3.762,3.762
				c0,2.075,1.688,3.762,3.762,3.762c2.075,0,3.763-1.688,3.763-3.762C30.906,100.598,29.219,98.91,27.144,98.91z" style="fill:#CCCCDE;"></path>
		</g>
	</g>
</g>
<g id="Layer_2">
	<g>
		<path d="M33.798,84.949h17.667h18.551c9.717,0,17.667-7.951,17.667-17.667v-7.101
			c0.001-9.716-7.95-17.667-17.666-17.667H51.465c-9.716,0-17.667,7.951-17.667,17.667v7.101V84.949z" style="fill:#CBE2F0;"></path>
		<path d="M70.016,86.449H32.298V60.181c0-10.569,8.598-19.167,19.167-19.167h18.552
			c5.1,0,9.908,1.999,13.538,5.629c3.63,3.63,5.629,8.438,5.628,13.538v7.101C89.183,77.851,80.585,86.449,70.016,86.449z
			 M35.298,83.449h34.718c8.915,0,16.167-7.252,16.167-16.167v-7.101c0-4.298-1.687-8.353-4.75-11.417s-7.118-4.75-11.416-4.75
			H51.465c-8.915,0-16.167,7.252-16.167,16.167V83.449z" style="fill:#6E6E96;"></path>
	</g>
	<path d="M69.1,190.694V64.632c0.917-22.118-17.635-22.118-17.635-22.118h140.406
		c8.924,0,16.222,7.301,16.222,16.222v154.172H69.1V190.694" style="fill:#CBE2F0;"></path>
	<path d="M59.839,42.515c0,0,9.254,7.206,9.254,18.944h139.001
		c0,0,0.362-18.944-16.222-18.944C175.289,42.515,59.839,42.515,59.839,42.515z" style="opacity:0.28;fill:#FFFFFF;enable-background:new    ;"></path>
	<path d="M35.035,66.434h33.613c0,0,1.502-23.468-17.634-23.468
		S33.347,67.733,33.347,67.733" style="opacity:0.1;fill:#6E6E96;enable-background:new    ;"></path>
	<path d="M209.593,214.408H67.6V64.632c0.282-6.84-1.308-12.083-4.726-15.645
		c-4.716-4.916-11.342-4.973-11.409-4.973v-3h140.406c9.771,0,17.722,7.95,17.722,17.722V214.408z M70.6,211.408h135.993V58.736
		c0-8.118-6.604-14.722-14.722-14.722H61.439c1.233,0.758,2.459,1.707,3.6,2.896c4.006,4.175,5.876,10.159,5.56,17.784L70.6,211.408
		z" style="fill:#6E6E96;"></path>
	<path d="M131.038,204.474H93.152c-0.824,0-1.494-0.664-1.5-1.488
		c-0.051-6.497-5.377-11.783-11.874-11.783c-0.052,0-0.104,0.005-0.155,0.008c-0.085,0.006-0.171,0.011-0.256,0.013
		c-0.431,0.025-0.796-0.143-1.086-0.425s-0.453-0.67-0.453-1.074V56.149c0-0.829,0.671-1.5,1.5-1.5s1.5,0.671,1.5,1.5v132.09
		c7.161,0.505,12.968,6.136,13.738,13.234h36.473c0.828,0,1.5,0.672,1.5,1.5S131.866,204.474,131.038,204.474z" style="opacity:0.36;fill:#6E6E96;enable-background:new    ;"></path>
	<path d="M196.279,150.099c-0.828,0-1.5-0.672-1.5-1.5V56.157
		c0-0.829,0.672-1.5,1.5-1.5s1.5,0.671,1.5,1.5v92.441C197.779,149.427,197.107,150.099,196.279,150.099z" style="opacity:0.36;fill:#6E6E96;enable-background:new    ;"></path>
	<g>
		<g>
			<polyline points="154.926,200.138 155.043,240.132 167.019,228.035 179.115,240.009 178.996,200.017" style="fill:#FF9999;"></polyline>
			<path d="M155.043,241.632c-0.191,0-0.385-0.036-0.568-0.112c-0.562-0.229-0.93-0.776-0.932-1.384
				l-0.117-39.994c-0.002-0.828,0.667-1.502,1.496-1.504c0.001,0,0.003,0,0.004,0c0.826,0,1.498,0.669,1.5,1.495l0.106,36.362
				l9.42-9.516c0.583-0.589,1.531-0.593,2.122-0.011l9.53,9.435l-0.108-36.382c-0.003-0.829,0.667-1.502,1.495-1.505
				c0.002,0,0.004,0,0.005,0c0.826,0,1.497,0.669,1.5,1.495l0.119,39.992c0.002,0.606-0.361,1.154-0.92,1.389
				c-0.56,0.232-1.204,0.108-1.636-0.317l-11.03-10.919l-10.92,11.031C155.822,241.478,155.436,241.632,155.043,241.632z" style="fill:#6E6E96;"></path>
		</g>
		<path d="M199.498,176.122c0,18.23-14.78,33.007-33.012,33.007c-18.228,0-33.01-14.776-33.01-33.007
			c0-18.232,14.782-33.009,33.01-33.009C184.718,143.112,199.498,157.89,199.498,176.122z" style="fill:#FFD28F;"></path>
		<path d="M138.851,177.839c0-16.111,13.063-29.17,29.172-29.17
			c7.056,0,15.066,2.505,20.109,6.675c-5.35-6.478-14.981-10.604-24.037-10.604c-16.109,0-29.17,13.058-29.17,29.171
			c0,9.054,4.123,18.175,10.6,23.521C141.357,192.39,138.851,184.896,138.851,177.839z" style="opacity:0.75;fill:#FFFFFF;enable-background:new    ;"></path>
		<g style="opacity:0.76;">
			<path d="M172.917,143.743c12.672,3.581,21.964,15.224,21.964,29.045c0,16.671-13.516,30.186-30.188,30.186
				c-16.67,0-30.188-13.517-30.188-30.186c0-3.135,0.477-6.156,1.363-8.996c-1.535,3.811-2.392,7.97-2.392,12.328
				c0,18.23,14.782,33.007,33.011,33.007c18.231,0,33.011-14.776,33.011-33.007C199.498,160.091,188.073,146.735,172.917,143.743z" style="fill:#E8B76D;"></path>
		</g>
		<path d="M157.195,179.703c0-5.838,4.868-10.568,10.875-10.568
			c2.332,0,4.483,0.716,6.258,1.931c-1.837-3.309-5.435-5.551-9.572-5.551c-6.006,0-10.875,4.73-10.875,10.564
			c0,3.572,1.825,6.729,4.615,8.641C157.668,183.228,157.195,181.521,157.195,179.703z" style="opacity:0.15;fill:#8B5C29;enable-background:new    ;"></path>
		<g>
			<path d="M165.18,187.356c-5.984,0-10.854-4.866-10.854-10.854c0-2.896,1.128-5.625,3.179-7.673
				c2.048-2.049,4.772-3.179,7.673-3.179c2.898,0,5.626,1.129,7.671,3.179c2.055,2.048,3.181,4.774,3.181,7.673l0,0
				c0,1.418,1.146,2.564,2.566,2.564c1.414,0,2.562-1.147,2.562-2.564l0,0c0-4.27-1.662-8.281-4.68-11.301
				c-3.021-3.02-7.029-4.682-11.301-4.682c-4.27,0-8.284,1.662-11.301,4.682c-3.02,3.02-4.683,7.033-4.683,11.301
				c0,8.814,7.168,15.98,15.984,15.98l0,0c1.417,0,2.565-1.145,2.565-2.563C167.745,188.506,166.595,187.356,165.18,187.356
				L165.18,187.356z" style="fill:#6E6E96;"></path>
		</g>
		<path d="M172.842,196.759c-0.677,0-1.291-0.461-1.457-1.147
			c-0.194-0.805,0.3-1.615,1.105-1.811c7.631-1.847,11.122-10.411,11.156-10.497c0.308-0.771,1.184-1.144,1.948-0.839
			c0.771,0.307,1.146,1.179,0.839,1.948c-0.164,0.411-4.116,10.096-13.238,12.304C173.077,196.745,172.958,196.759,172.842,196.759z" style="opacity:0.73;fill:#FFFFFF;enable-background:new    ;"></path>
		<g style="opacity:0.2;">
			<path d="M154.013,211.271c0.479,0.244,11.916,5.961,25.84,0.063l-1.631-3.854
				c-12.146,5.143-22.198,0.114-22.3,0.064L154.013,211.271z" style="fill:#6E6E96;"></path>
		</g>
		<path d="M166.487,210.629c-19.028,0-34.51-15.479-34.51-34.507c0-19.028,15.481-34.509,34.51-34.509
			c0.001,0,0.001,0,0.002,0c9.218,0,17.884,3.589,24.401,10.106c6.519,6.518,10.108,15.184,10.108,24.402
			C200.998,195.149,185.517,210.629,166.487,210.629z M166.489,144.613c-0.001,0-0.001,0-0.002,0
			c-17.375,0-31.51,14.135-31.51,31.509c0,17.373,14.135,31.507,31.51,31.507c17.376,0,31.512-14.134,31.512-31.507
			c0-8.417-3.277-16.33-9.229-22.281C182.818,147.891,174.905,144.613,166.489,144.613z" style="fill:#6E6E96;"></path>
	</g>
	<g style="opacity:0.56;">
		<path d="M149.077,63.959h-23.451c-1.381,0-2.5-1.119-2.5-2.5s1.119-2.5,2.5-2.5h23.451
			c1.381,0,2.5,1.119,2.5,2.5S150.458,63.959,149.077,63.959z" style="fill:#6E6E96;"></path>
		<path d="M154.49,78.845H94.96c-0.829,0-1.5-0.671-1.5-1.5s0.671-1.5,1.5-1.5h59.529
			c0.828,0,1.5,0.671,1.5,1.5S155.318,78.845,154.49,78.845z" style="fill:#6E6E96;"></path>
		<path d="M180.646,78.845h-13.529c-0.828,0-1.5-0.671-1.5-1.5s0.672-1.5,1.5-1.5h13.529
			c0.828,0,1.5,0.671,1.5,1.5S181.474,78.845,180.646,78.845z" style="fill:#6E6E96;"></path>
		<path d="M143.665,86.963H94.96c-0.829,0-1.5-0.671-1.5-1.5s0.671-1.5,1.5-1.5h48.705
			c0.828,0,1.5,0.671,1.5,1.5S144.493,86.963,143.665,86.963z" style="fill:#6E6E96;"></path>
		<path d="M180.646,86.963h-30.667c-0.828,0-1.5-0.671-1.5-1.5s0.672-1.5,1.5-1.5h30.667
			c0.828,0,1.5,0.671,1.5,1.5S181.474,86.963,180.646,86.963z" style="fill:#6E6E96;"></path>
		<path d="M117.96,96.884h-23c-0.829,0-1.5-0.671-1.5-1.5s0.671-1.5,1.5-1.5h23c0.829,0,1.5,0.671,1.5,1.5
			S118.789,96.884,117.96,96.884z" style="fill:#6E6E96;"></path>
		<path d="M140.058,96.884h-13.529c-0.829,0-1.5-0.671-1.5-1.5s0.671-1.5,1.5-1.5h13.529
			c0.828,0,1.5,0.671,1.5,1.5S140.886,96.884,140.058,96.884z" style="fill:#6E6E96;"></path>
		<path d="M180.646,96.884h-34.274c-0.828,0-1.5-0.671-1.5-1.5s0.672-1.5,1.5-1.5h34.274
			c0.828,0,1.5,0.671,1.5,1.5S181.474,96.884,180.646,96.884z" style="fill:#6E6E96;"></path>
		<path d="M131.49,106.806H94.96c-0.829,0-1.5-0.671-1.5-1.5s0.671-1.5,1.5-1.5h36.53
			c0.828,0,1.5,0.671,1.5,1.5S132.319,106.806,131.49,106.806z" style="fill:#6E6E96;"></path>
		<path d="M145.921,106.806h-4.51c-0.828,0-1.5-0.671-1.5-1.5s0.672-1.5,1.5-1.5h4.51
			c0.828,0,1.5,0.671,1.5,1.5S146.749,106.806,145.921,106.806z" style="fill:#6E6E96;"></path>
		<path d="M180.646,106.806H154.94c-0.828,0-1.5-0.671-1.5-1.5s0.672-1.5,1.5-1.5h25.706
			c0.828,0,1.5,0.671,1.5,1.5S181.474,106.806,180.646,106.806z" style="fill:#6E6E96;"></path>
	</g>
	<path d="M96.512,150.329c-0.337,0-0.677-0.113-0.957-0.346
		c-0.637-0.529-0.725-1.475-0.196-2.112c4.541-5.473,12.719-14.388,16.458-12.67c2.317,1.067,1.708,4.604,1.507,5.766
		c-0.784,4.545-0.38,5.899-0.221,6.227c1.119-0.156,4.009-3.046,5.122-4.158c0.591-0.592,2.384-2.383,4.254-1.609
		c0.796,0.33,1.262,1,1.535,1.691l5.735-2.433c0.765-0.323,1.644,0.032,1.967,0.795s-0.032,1.644-0.795,1.967l-7.44,3.156
		c-0.463,0.197-0.994,0.148-1.414-0.13c-0.419-0.278-0.672-0.748-0.672-1.251c-0.002-0.271-0.052-0.603-0.117-0.846
		c-0.199,0.124-0.505,0.354-0.93,0.778c-2.848,2.849-6.072,6.072-8.644,4.74c-1.907-0.988-2.306-3.811-1.336-9.438
		c0.266-1.542,0.172-2.239,0.102-2.505c-1.772,0.2-7.611,5.58-12.803,11.835C97.37,150.145,96.943,150.329,96.512,150.329z" style="opacity:0.57;fill:#6E6E96;enable-background:new    ;"></path>
	<path d="M100.973,160.622h-4.46c-0.829,0-1.5-0.672-1.5-1.5
		s0.671-1.5,1.5-1.5h4.46c0.829,0,1.5,0.672,1.5,1.5S101.802,160.622,100.973,160.622z" style="opacity:0.31;fill:#6E6E96;enable-background:new    ;"></path>
	<path d="M119.615,160.622h-12.026c-0.829,0-1.5-0.672-1.5-1.5
		s0.671-1.5,1.5-1.5h12.026c0.829,0,1.5,0.672,1.5,1.5S120.443,160.622,119.615,160.622z" style="opacity:0.31;fill:#6E6E96;enable-background:new    ;"></path>
	<path d="M130.437,160.622h-4.811c-0.829,0-1.5-0.672-1.5-1.5
		s0.671-1.5,1.5-1.5h4.811c0.828,0,1.5,0.672,1.5,1.5S131.265,160.622,130.437,160.622z" style="opacity:0.31;fill:#6E6E96;enable-background:new    ;"></path>
	<path d="M143.214,116.276H94.96c-0.829,0-1.5-0.671-1.5-1.5
		s0.671-1.5,1.5-1.5h48.254c0.828,0,1.5,0.671,1.5,1.5S144.042,116.276,143.214,116.276z" style="opacity:0.56;fill:#6E6E96;enable-background:new    ;"></path>
</g>
</svg>
